<svg width="150" height="150" viewBox="0 0 150 150" fill="none" xmlns="http://www.w3.org/2000/svg">
<g clip-path="url(#clip0_326_538)">
<path d="M97.2989 129.419H43.4128C39.6533 129.419 36.6001 126.365 36.6001 122.605V24.8141C36.6001 21.0538 39.6533 18 43.4128 18H97.2761C101.036 18 104.089 21.0538 104.089 24.8141V122.605C104.112 126.365 101.058 129.419 97.2989 129.419Z" fill="#FFF6E1"/>
<path d="M97.2989 129.419H43.4128C39.6533 129.419 36.6001 126.365 36.6001 122.605V24.8141C36.6001 21.0538 39.6533 18 43.4128 18H97.2761C101.036 18 104.089 21.0538 104.089 24.8141V122.605C104.112 126.365 101.058 129.419 97.2989 129.419Z" fill="#F7D379"/>
<path opacity="0.98" d="M97.0708 117.683H43.6176C43.0936 117.683 42.6606 117.25 42.6606 116.725V32.4943C42.6606 31.9701 43.0936 31.5371 43.6176 31.5371H97.0708C97.5949 31.5371 98.0278 31.9701 98.0278 32.4943V116.725C98.0506 117.25 97.6176 117.683 97.0708 117.683Z" fill="white"/>
<path d="M82.9442 63.215C82.1012 60.0472 79.9594 57.3808 77.0657 55.8539C74.8328 54.6916 72.372 54.0763 69.8657 54.0535C67.1543 53.9851 64.4201 54.0079 61.686 54.0307C60.9341 54.0763 60.6606 54.4865 60.5923 54.8512V84.136C60.5923 84.7286 61.0708 85.2299 61.686 85.2299H64.3974C65.0125 85.2299 65.5138 84.7286 65.5138 84.1132V59.1128C65.5138 58.4747 66.0379 57.9734 66.6758 57.9961C68.0429 58.0417 69.3644 58.0417 70.686 58.224C74.1948 58.4975 77.1113 60.9816 77.9999 64.3773C79.0252 67.773 79.0252 71.4193 77.9771 74.815C77.1796 77.8233 74.7872 80.1478 71.7341 80.8315L71.4151 80.9227C70.9138 81.0594 70.5493 81.5152 70.5493 82.0394L70.5265 83.9537C70.5265 84.6374 71.1417 85.1844 71.8024 85.0704C72.2581 85.002 72.7138 84.9337 73.1695 84.8197C77.5214 84.0677 81.1214 81.0138 82.5796 76.8433C84.1746 72.4677 84.3113 67.6818 82.9442 63.215Z" fill="#70480F"/>
<path d="M91.1242 91.6338C89.0507 91.5426 87.1596 91.5198 85.4507 91.5882C83.6052 91.5198 68.59 90.8133 68.7495 92.1807C68.909 93.6621 68.8178 97.673 71.8026 99.952C74.7874 102.231 93.2431 103.644 97.2533 105.536C97.2533 105.536 93.995 112.988 95.271 118.503C96.0457 121.807 102.084 127.801 100.739 128.28C99.395 128.758 61.2988 129.419 61.2988 129.419C61.2988 129.419 87.2963 137.236 92.3318 142.364C94.7469 144.825 98.028 151.047 100.785 157.2C109.557 153.371 118.306 147.879 126.6 140.882C122.294 130.582 118.101 119.483 117.213 113.375C114.615 95.3257 105.98 92.2719 91.1242 91.6338Z" fill="#FDE1C8"/>
</g>
<defs>
<clipPath id="clip0_326_538">
<rect width="150" height="150" fill="white"/>
</clipPath>
</defs>
</svg>
