<svg width="151" height="150" viewBox="0 0 151 150" fill="none" xmlns="http://www.w3.org/2000/svg">
<path d="M37.7181 128H18.592C16.8914 128 15.5 126.608 15.5 124.906V88.5704C15.5 86.8686 16.8914 85.4762 18.592 85.4762H37.7181C39.4187 85.4762 40.81 86.8686 40.81 88.5704V124.906C40.81 126.608 39.4407 128 37.7181 128Z" fill="#FFE9B3"/>
<path d="M41.9143 122.651H41.1855C40.8321 122.651 40.5449 122.364 40.5449 122.01V87.7085C40.5449 87.3548 40.8321 87.0675 41.1855 87.0675H41.9143C42.2677 87.0675 42.5549 87.3548 42.5549 87.7085V122.01C42.5549 122.364 42.2677 122.651 41.9143 122.651Z" fill="#FFD98D"/>
<path d="M132.841 85.4762C131.383 93.6759 130.654 95.201 126.568 98.4057C121.422 102.45 106.603 111.777 101.457 114.827C96.3111 117.899 95.1626 121.325 83.8548 120.463C72.547 119.601 48.1424 116.595 42.5327 116.595V89.565C45.0946 89.2777 50.5277 84.9678 57.2417 85.4762C63.9557 85.9845 73.2758 88.5041 79.7027 87.4874C86.1296 86.4929 94.6546 84.128 100.132 84.57C103.975 84.8794 106.537 86.1392 107.288 88.1947C107.862 89.8081 107.354 91.7752 105.587 93.7422C105.587 93.7422 115.989 88.8578 118.993 87.4653C121.422 84.4153 122.482 75.9503 126.48 71.3753C128.843 68.6789 131.493 67.7064 133.304 67.618C134.585 67.5738 135.425 67.9716 135.491 68.5462C135.623 70.1155 134.298 77.2764 132.841 85.4762Z" fill="#FDE1C8"/>
<path d="M133.304 67.6399C127.143 69.3417 125.773 80.5694 123.83 86.1612C121.886 91.7529 121.665 91.7529 113.339 95.5323C104.991 99.2896 97.3713 100.793 87.1898 102.384C81.6684 103.246 72.3483 106.384 75.1973 104.218C78.0464 102.052 85.3567 99.9969 91.2977 99.0686C97.2388 98.1624 102.937 96.549 105.587 93.7642C105.587 93.7642 115.989 88.8797 118.993 87.4873C121.422 84.4372 122.483 75.9723 126.48 71.3972C128.843 68.6787 131.493 67.7062 133.304 67.6399Z" fill="#F8C9B4"/>
<path d="M75.5063 68.6347C88.3747 68.6347 98.8066 58.1952 98.8066 45.3174C98.8066 32.4395 88.3747 22 75.5063 22C62.6379 22 52.2061 32.4395 52.2061 45.3174C52.2061 58.1952 62.6379 68.6347 75.5063 68.6347Z" fill="#F7D379"/>
<path opacity="0.25" d="M75.5067 63.8386C85.7282 63.8386 94.0144 55.5463 94.0144 45.3173C94.0144 35.0883 85.7282 26.796 75.5067 26.796C65.2852 26.796 56.999 35.0883 56.999 45.3173C56.999 55.5463 65.2852 63.8386 75.5067 63.8386Z" stroke="#70480F" stroke-width="3.5" stroke-miterlimit="10"/>
<path d="M75.97 37.7585C76.3234 37.7585 76.6326 37.869 76.9197 38.0679C77.2068 38.2668 77.4056 38.6205 77.516 39.1288L78.797 44.5437H81.1822L82.4853 38.731C82.5736 38.311 82.7724 38.0458 83.0816 37.8911C83.3908 37.7364 83.722 37.7143 84.0533 37.7806C84.4067 37.8469 84.6938 38.0237 84.8926 38.311C85.0914 38.5763 85.1134 38.9299 85.0251 39.3498L83.722 44.5216H85.5331C85.7539 44.5216 85.9306 44.61 86.041 44.7647C86.1515 44.9195 86.1956 45.1184 86.1956 45.3394C86.1956 45.5604 86.1515 45.7372 86.041 45.8919C85.9306 46.0466 85.776 46.1351 85.5331 46.1351H83.3245L81.6681 52.8319C81.5356 53.3402 81.3368 53.6939 81.0497 53.8928C80.7626 54.0917 80.4534 54.2022 80.1221 54.2022C79.8129 54.2022 79.5037 54.0917 79.1945 53.8928C78.9074 53.6939 78.6865 53.3181 78.5761 52.7877L77.0301 46.1351H74.8437L73.1652 52.8319C73.0326 53.3402 72.8339 53.6939 72.5247 53.8928C72.2155 54.0917 71.9063 54.2022 71.5971 54.2022C71.2879 54.2022 70.9787 54.0917 70.6695 53.8928C70.3824 53.6939 70.1615 53.3181 70.0511 52.8098L68.3947 46.1351H66.164C65.9432 46.1351 65.7665 46.0466 65.6561 45.8919C65.5456 45.7372 65.5015 45.5383 65.5015 45.3394C65.5015 45.1184 65.5456 44.9195 65.6561 44.7647C65.7665 44.61 65.9211 44.5216 66.164 44.5216H67.9971L66.7162 39.3498C66.6057 38.9299 66.6499 38.5763 66.8487 38.311C67.0475 38.0458 67.3125 37.869 67.71 37.7806C68.0634 37.7143 68.3947 37.7364 68.6818 37.869C68.991 38.0016 69.1898 38.2889 69.3002 38.731L70.6032 44.5437H73.0768L74.4461 39.1288C74.5565 38.6205 74.7553 38.2668 75.0203 38.0679C75.2633 37.8469 75.5946 37.7585 75.97 37.7585ZM71.7296 49.7376L72.6351 46.1351H70.9345L71.7296 49.7376ZM75.2412 44.5437H76.6326L75.97 41.6705L75.2412 44.5437ZM80.0117 49.7155L80.8068 46.1351H79.1724L80.0117 49.7155Z" fill="#70480F" stroke="#F7D379" stroke-width="0.5" stroke-miterlimit="10"/>
</svg>
