<svg width="150" height="150" viewBox="0 0 150 150" fill="none" xmlns="http://www.w3.org/2000/svg">
<g clip-path="url(#clip0_326_562)">
<path d="M32.5928 76.3163C32.8464 73.7843 33.9879 71.3172 35.7 69.6942C37.4756 67.8763 38.9341 65.8637 40.0755 63.6563C40.3292 62.4877 40.8365 61.384 41.5974 60.3453C42.612 57.8133 43.2462 55.0865 43.4998 52.4247L44.0071 47.5555C44.0071 47.4257 44.0071 47.4257 44.0071 47.2958L44.2608 45.0235C44.7681 40.0245 46.9875 35.6746 50.285 32.4934C54.9142 26.7153 61.6359 22.8849 69.5626 22.1058C78.5038 21.3267 86.7475 24.8975 92.5181 31.2599C99.113 34.9605 103.362 42.4915 102.664 50.7367L102.284 54.1776C104.313 55.8656 105.645 58.2678 105.898 61.1893C106.025 63.3967 105.518 65.5391 104.503 67.3569C108.371 71.5769 110.908 77.0953 111.479 83.1981C112.747 97.8057 102.093 110.725 87.8255 111.829C79.0745 112.608 71.0845 108.907 65.8212 102.48C63.2213 104.688 59.797 106.051 56.1824 106.311C46.29 107.219 37.539 99.6885 36.7146 89.4307C36.5878 88.1322 36.5878 86.8987 36.7146 85.7301C33.861 83.6525 32.2757 80.0169 32.5928 76.3163Z" fill="#3A2100"/>
<path d="M39.1242 112.943C36.9048 115.475 31.8443 121.5 30.4753 124.303C29.1063 127.106 25 150.93 25 150.93C117.344 171.299 125.404 176.084 124.985 150.598L123.907 138.392C123.907 135.86 123.654 133.263 123.273 130.731C120.483 114.76 109.513 102.295 96.3862 99.7633C94.7375 99.5036 93.1521 99.2439 91.5034 99.2439L59.0359 99.3737C57.3872 99.958 55.8019 100.737 54.2799 101.646V101.386L53.6458 101.906C48.3825 105.022 43.1193 108.463 39.1242 112.943Z" fill="#CCDAE2"/>
<path d="M44.1333 69.4343L46.2259 48.5941C46.6064 44.6338 48.382 41.063 50.8551 38.2064C51.8697 47.5553 59.6061 54.8266 68.9912 54.8266H85.6054L83.5762 73.7841C83.4493 74.693 83.3225 75.6019 83.0689 76.4459L86.1761 93.8452C87.698 102.025 82.8152 109.946 75.0788 111.504C67.4693 113.062 59.9865 107.674 58.3378 99.4935L56.4354 89.2357C48.5088 86.1843 43.2455 78.2637 44.1333 69.4343Z" fill="#FFE3CA"/>
<path opacity="0.46" d="M62.8411 90.4046C70.8311 91.3136 78.187 86.9637 81.6113 80.1469L81.865 81.5752C82.7528 86.9637 77.6163 92.3523 70.6409 93.3262C65.5044 94.1052 60.7484 92.5471 58.2753 89.4957C59.1631 89.7554 60.0509 89.8853 60.8753 90.0151L62.8411 90.4046Z" fill="#F6B7A0"/>
<path d="M49.3969 30.0262H71.211C80.9766 30.0262 88.9666 38.2065 88.9666 48.2046V54.3723C89.0935 54.3723 89.0935 54.3723 89.2203 54.3723C92.3275 54.8917 94.6104 57.943 94.1031 61.1242L92.9617 68.006C92.4544 71.1873 89.4739 73.5245 86.3667 73.0051C85.4789 72.8752 84.718 72.4857 84.1473 72.0962L79.3913 78.3937C78.3767 79.822 76.7913 80.6011 75.0158 80.6011H68.5476C68.1672 80.6011 67.9135 80.3414 67.9135 79.9518C67.9135 79.5623 68.1672 79.3026 68.5476 79.3026H75.0158C76.284 79.3026 77.4889 78.6534 78.3767 77.6146L83.1326 71.3171C81.8644 70.0186 81.2303 68.1359 81.6107 66.3181L82.7522 59.4362C83.1326 56.9043 85.0984 54.9566 87.3813 54.567V48.2695C87.3813 39.3102 80.2791 31.909 71.4012 31.909H49.5237C49.0164 31.909 48.636 31.5195 48.636 31.0001C48.5091 30.4158 48.8896 30.0262 49.3969 30.0262Z" fill="#FABB58"/>
<path d="M67.2159 81.4447H69.8159C70.5768 81.4447 71.2109 80.7955 71.2109 80.0164C71.2109 79.2374 70.5768 78.5881 69.8159 78.5881H67.2159C66.455 78.5881 65.8208 79.2374 65.8208 80.0164C65.8842 80.7955 66.5184 81.4447 67.2159 81.4447Z" fill="#F4A8B4"/>
<path d="M67.2157 82.2242H69.8156C70.9571 82.2242 71.9717 81.3153 71.9717 80.0168C71.9717 78.8482 71.0839 77.8094 69.8156 77.8094H67.2157C66.0743 77.8094 65.0597 78.7184 65.0597 80.0168C65.2499 81.1854 66.1377 82.2242 67.2157 82.2242Z" fill="#FABB58"/>
</g>
<defs>
<clipPath id="clip0_326_562">
<rect width="150" height="150" fill="white"/>
</clipPath>
</defs>
</svg>
