<svg width="151" height="150" viewBox="0 0 151 150" fill="none" xmlns="http://www.w3.org/2000/svg">
<g clip-path="url(#clip0_326_579)">
<path d="M24.9446 116.094L51.2981 19.6706C51.6179 18.4593 52.8652 17.758 54.0806 18.0768L97.8325 29.9664C99.0478 30.2851 99.7514 31.5283 99.4316 32.7395L73.0781 129.163C72.7583 130.374 71.511 131.076 70.2956 130.757L26.5437 118.867C25.3284 118.549 24.5928 117.305 24.9446 116.094Z" fill="#D0F1E0"/>
<path d="M24.9768 115.998L41.1919 56.6781C41.5117 55.4668 42.791 54.7337 44.0063 55.0843L87.7263 66.9739C88.9417 67.2926 89.6772 68.5676 89.3254 69.7789L73.1103 129.099C72.7905 130.311 71.5112 131.044 70.2959 130.693L26.5759 118.804C25.3606 118.485 24.625 117.21 24.9768 115.998Z" fill="#9FD9BA"/>
<path d="M45.8931 55.5942C44.3899 61.1086 42.503 68.0575 40.9678 73.572C40.616 74.7832 40.616 75.8351 41.5435 76.8233C42.1512 77.4608 42.503 78.3214 42.503 79.1821C42.535 81.5409 43.6224 83.5809 44.4219 85.6847C45.2854 88.0116 46.053 88.4579 48.5157 88.3622C49.795 88.3304 50.9463 88.7129 52.1297 89.0316C53.9847 89.5098 55.8077 90.0835 57.6626 90.5298C61.2127 91.3904 63.8992 93.4942 66.3299 96.0442C66.7776 96.5224 67.3533 96.9049 67.865 97.3511C69.0484 98.4349 69.0164 99.2637 67.6092 100.029C66.5538 100.571 66.5218 101.081 67.1294 102.037C68.1849 103.694 67.5772 104.714 65.6263 105.129C61.3726 106.053 57.2149 106.053 53.0572 104.619C51.1062 103.949 48.8355 104.428 46.9805 102.961C46.181 102.324 45.6373 100.985 44.358 101.24C42.6309 101.559 41.1277 102.483 39.7845 103.567C37.9615 104.969 36.938 107.296 35.0831 108.476C30.9253 111.026 29.2623 114.851 28.4947 119.313C26.032 118.676 26 118.612 26.6397 116.19C31.8848 97.0324 37.0979 77.8752 42.3431 58.7498C42.9827 56.2954 43.4624 54.861 45.8931 55.5942Z" fill="#7DB092"/>
<path d="M68.8242 130.279L86.2546 66.5275L89.9326 67.5156L73.1099 129.035C72.79 130.247 71.5107 130.98 70.2954 130.629L68.8242 130.279Z" fill="#7DB092"/>
<path d="M25.0725 116.03L41.8953 54.5105L45.5732 55.4986L28.1428 119.25L26.6716 118.835C25.4563 118.517 24.7207 117.242 25.0725 116.03Z" fill="#7DB092"/>
<path d="M63.5492 27.9229C63.4962 28.1168 63.4089 28.2654 63.2872 28.3688C63.1655 28.4722 63.0077 28.4975 62.8137 28.4448L56.6641 26.7741C56.4702 26.7214 56.3471 26.6197 56.2949 26.4691C56.2427 26.3185 56.2404 26.1562 56.2879 25.9824C56.3354 25.8086 56.42 25.67 56.5417 25.5666C56.6634 25.4632 56.8212 25.4379 57.0152 25.4906L62.2117 26.9024L61.8232 25.4072C61.7752 25.2146 61.7981 25.0521 61.8919 24.9196C61.9923 24.7888 62.127 24.7034 62.2961 24.6631C62.45 24.6259 62.6002 24.6416 62.7467 24.7101C62.8932 24.7787 62.9889 24.9016 63.0338 25.079L63.5133 27.0298C63.5594 27.229 63.5851 27.3976 63.5905 27.5355C63.5959 27.6735 63.5822 27.8026 63.5492 27.9229ZM62.0852 33.4728C61.831 34.402 61.3454 34.9954 60.6283 35.253C59.9094 35.5173 58.9981 35.4996 57.8946 35.1997L57.4633 35.0826C56.3597 34.7827 55.5655 34.3372 55.0806 33.7458C54.5939 33.1611 54.4776 32.4042 54.7317 31.475C54.9859 30.5458 55.4724 29.949 56.1914 29.6847C56.9085 29.4271 57.8188 29.4482 58.9223 29.748L59.3537 29.8652C60.4572 30.165 61.2523 30.6073 61.739 31.1919C62.2239 31.7833 62.3393 32.5436 62.0852 33.4728ZM60.8713 33.143C60.9426 32.8823 60.9595 32.6499 60.9219 32.4458C60.8825 32.2483 60.7805 32.0698 60.6158 31.9101C60.4559 31.759 60.2353 31.62 59.9538 31.4933C59.6723 31.3666 59.3243 31.2469 58.9096 31.1342L58.6588 31.0661C58.2441 30.9534 57.8833 30.8805 57.5762 30.8474C57.2691 30.8142 57.0049 30.8214 56.7835 30.869C56.567 30.9251 56.3915 31.0282 56.257 31.1784C56.1207 31.3353 56.0169 31.5441 55.9456 31.8048C55.8743 32.0655 55.8584 32.2945 55.8978 32.492C55.9353 32.6961 56.0341 32.8737 56.1939 33.0249C56.3586 33.1845 56.5817 33.3277 56.8631 33.4545C57.1446 33.5812 57.4927 33.7009 57.9073 33.8136L58.1581 33.8817C58.5728 33.9943 58.9337 34.0673 59.2407 34.1004C59.5478 34.1336 59.8096 34.1221 60.0261 34.066C60.2475 34.0184 60.4263 33.9162 60.5626 33.7593C60.6971 33.6092 60.8 33.4037 60.8713 33.143ZM60.3845 39.6909C60.1303 40.6201 59.6447 41.2135 58.9276 41.4711C58.2087 41.7354 57.2974 41.7177 56.1939 41.4179L55.7625 41.3007C54.659 41.0009 53.8648 40.5553 53.3799 39.9639C52.8932 39.3792 52.7769 38.6223 53.031 37.6931C53.2852 36.7639 53.7717 36.1671 54.4907 35.9028C55.2078 35.6452 56.1181 35.6663 57.2216 35.9661L57.653 36.0833C58.7565 36.3831 59.5516 36.8254 60.0383 37.4101C60.5232 38.0014 60.6386 38.7617 60.3845 39.6909ZM59.1706 39.3611C59.2419 39.1004 59.2588 38.868 59.2212 38.6639C59.1818 38.4665 59.0797 38.2879 58.915 38.1283C58.7552 37.9771 58.5345 37.8382 58.2531 37.7114C57.9716 37.5847 57.6235 37.465 57.2089 37.3523L56.9581 37.2842C56.5434 37.1715 56.1826 37.0986 55.8755 37.0655C55.5684 37.0323 55.3042 37.0395 55.0828 37.0871C54.8663 37.1432 54.6908 37.2463 54.5563 37.3965C54.42 37.5534 54.3162 37.7622 54.2449 38.0229C54.1736 38.2836 54.1576 38.5127 54.1971 38.7101C54.2346 38.9142 54.3333 39.0918 54.4932 39.243C54.6579 39.4026 54.881 39.5458 55.1624 39.6726C55.4439 39.7993 55.792 39.919 56.2066 40.0317L56.4574 40.0998C56.8721 40.2125 57.2329 40.2854 57.54 40.3185C57.8471 40.3517 58.1089 40.3402 58.3254 40.2841C58.5468 40.2366 58.7256 40.1343 58.8619 39.9775C58.9964 39.8273 59.0993 39.6218 59.1706 39.3611ZM58.6838 45.909C58.4296 46.8382 57.944 47.4316 57.2269 47.6892C56.5079 47.9535 55.5967 47.9358 54.4932 47.636L54.0618 47.5188C52.9583 47.219 52.1641 46.7734 51.6792 46.182C51.1925 45.5973 51.0762 44.8404 51.3303 43.9112C51.5845 42.982 52.071 42.3853 52.7899 42.121C53.507 41.8633 54.4174 41.8844 55.5209 42.1842L55.9523 42.3014C57.0558 42.6013 57.8509 43.0435 58.3376 43.6282C58.8225 44.2195 58.9379 44.9798 58.6838 45.909ZM57.4699 45.5792C57.5412 45.3185 57.5581 45.0861 57.5205 44.882C57.4811 44.6846 57.379 44.506 57.2143 44.3464C57.0545 44.1952 56.8338 44.0563 56.5524 43.9295C56.2709 43.8028 55.9228 43.6831 55.5082 43.5704L55.2574 43.5023C54.8427 43.3896 54.4819 43.3167 54.1748 43.2836C53.8677 43.2504 53.6035 43.2576 53.3821 43.3052C53.1656 43.3613 52.9901 43.4644 52.8556 43.6146C52.7193 43.7715 52.6155 43.9803 52.5442 44.241C52.4729 44.5017 52.4569 44.7308 52.4963 44.9282C52.5339 45.1323 52.6326 45.3099 52.7925 45.4611C52.9572 45.6208 53.1802 45.7639 53.4617 45.8907C53.7432 46.0174 54.0913 46.1371 54.5059 46.2498L54.7567 46.3179C55.1714 46.4306 55.5322 46.5035 55.8393 46.5366C56.1464 46.5698 56.4082 46.5583 56.6247 46.5023C56.8461 46.4547 57.0249 46.3524 57.1612 46.1956C57.2957 46.0454 57.3986 45.8399 57.4699 45.5792ZM56.983 52.1271C56.7289 53.0563 56.2433 53.6497 55.5262 53.9074C54.8072 54.1717 53.896 54.1539 52.7925 53.8541L52.3611 53.7369C51.2576 53.4371 50.4634 52.9915 49.9785 52.4001C49.4918 51.8155 49.3755 51.0585 49.6296 50.1293C49.8838 49.2001 50.3703 48.6034 51.0892 48.3391C51.8063 48.0815 52.7166 48.1026 53.8202 48.4024L54.2515 48.5196C55.3551 48.8194 56.1502 49.2616 56.6369 49.8463C57.1218 50.4377 57.2372 51.1979 56.983 52.1271ZM55.7692 51.7973C55.8405 51.5366 55.8573 51.3042 55.8198 51.1001C55.7804 50.9027 55.6783 50.7241 55.5136 50.5645C55.3538 50.4133 55.1331 50.2744 54.8516 50.1477C54.5702 50.0209 54.2221 49.9012 53.8075 49.7886L53.5567 49.7204C53.142 49.6078 52.7811 49.5349 52.4741 49.5017C52.167 49.4685 51.9028 49.4758 51.6814 49.5233C51.4649 49.5794 51.2894 49.6826 51.1549 49.8327C51.0186 49.9896 50.9148 50.1984 50.8435 50.4591C50.7722 50.7198 50.7562 50.9489 50.7956 51.1463C50.8332 51.3504 50.9319 51.5281 51.0917 51.6792C51.2564 51.8389 51.4795 51.9821 51.761 52.1088C52.0425 52.2356 52.3905 52.3553 52.8052 52.4679L53.056 52.536C53.4706 52.6487 53.8315 52.7216 54.1386 52.7548C54.4457 52.7879 54.7074 52.7765 54.924 52.7204C55.1453 52.6728 55.3242 52.5706 55.4605 52.4137C55.595 52.2635 55.6979 52.0581 55.7692 51.7973Z" fill="#7DB092"/>
<path d="M63.2872 28.3688L63.2614 28.3385L63.2872 28.3688ZM56.2949 26.4691L56.2572 26.4822L56.2572 26.4822L56.2949 26.4691ZM56.5417 25.5666L56.5675 25.597L56.5417 25.5666ZM62.2117 26.9024L62.2012 26.9408L62.2676 26.9589L62.2503 26.8923L62.2117 26.9024ZM61.8232 25.4072L61.7845 25.4169L61.7846 25.4173L61.8232 25.4072ZM61.8919 24.9196L61.8602 24.8953L61.8593 24.8966L61.8919 24.9196ZM62.2961 24.6631L62.3053 24.7019L62.3054 24.7018L62.2961 24.6631ZM62.7467 24.7101L62.7297 24.7462L62.7467 24.7101ZM63.0338 25.079L63.0725 25.0694L63.0724 25.0692L63.0338 25.079ZM63.5133 27.0298L63.5521 27.0208L63.552 27.0202L63.5133 27.0298ZM63.5108 27.9125C63.4593 28.1006 63.3755 28.2415 63.2614 28.3385L63.313 28.3991C63.4422 28.2893 63.5331 28.1329 63.5877 27.9333L63.5108 27.9125ZM63.2614 28.3385C63.1523 28.4311 63.0092 28.4566 62.8242 28.4064L62.8032 28.4833C63.0062 28.5384 63.1787 28.5132 63.313 28.3991L63.2614 28.3385ZM62.8242 28.4064L56.6746 26.7356L56.6536 26.8125L62.8032 28.4833L62.8242 28.4064ZM56.6746 26.7356C56.4897 26.6854 56.3794 26.591 56.3326 26.456L56.2572 26.4822C56.3149 26.6485 56.4507 26.7574 56.6536 26.8125L56.6746 26.7356ZM56.3326 26.456C56.2833 26.3139 56.2807 26.16 56.3264 25.9929L56.2494 25.972C56.2001 26.1525 56.2021 26.323 56.2572 26.4822L56.3326 26.456ZM56.3264 25.9929C56.3721 25.8258 56.4527 25.6945 56.5675 25.597L56.5159 25.5363C56.3874 25.6456 56.2988 25.7915 56.2494 25.972L56.3264 25.9929ZM56.5675 25.597C56.6766 25.5043 56.8197 25.4788 57.0047 25.529L57.0257 25.4521C56.8228 25.397 56.6503 25.4222 56.5159 25.5363L56.5675 25.597ZM57.0047 25.529L62.2012 26.9408L62.2223 26.864L57.0257 25.4521L57.0047 25.529ZM62.2503 26.8923L61.8618 25.3971L61.7846 25.4173L62.1732 26.9125L62.2503 26.8923ZM61.8619 25.3975C61.816 25.2135 61.8389 25.0635 61.9244 24.9425L61.8593 24.8966C61.7574 25.0407 61.7344 25.2158 61.7845 25.4169L61.8619 25.3975ZM61.9235 24.9438C62.018 24.8207 62.1446 24.7401 62.3053 24.7019L62.2869 24.6244C62.1095 24.6666 61.9666 24.7569 61.8603 24.8953L61.9235 24.9438ZM62.3054 24.7018C62.4503 24.6668 62.5912 24.6814 62.7297 24.7462L62.7636 24.674C62.6091 24.6018 62.4497 24.585 62.2868 24.6244L62.3054 24.7018ZM62.7297 24.7462C62.8639 24.809 62.9527 24.9213 62.9951 25.0888L63.0724 25.0692C63.0251 24.8819 62.9225 24.7483 62.7636 24.674L62.7297 24.7462ZM62.9951 25.0885L63.4746 27.0393L63.552 27.0202L63.0725 25.0694L62.9951 25.0885ZM63.4745 27.0388C63.5202 27.2367 63.5454 27.4026 63.5507 27.5371L63.6304 27.5339C63.6248 27.3926 63.5986 27.2214 63.5521 27.0208L63.4745 27.0388ZM63.5507 27.5371C63.5559 27.6714 63.5425 27.7964 63.5108 27.9125L63.5877 27.9333C63.6218 27.8087 63.6359 27.6755 63.6304 27.5339L63.5507 27.5371ZM60.6283 35.253L60.6149 35.2155L60.6146 35.2156L60.6283 35.253ZM55.0806 33.7458L55.1115 33.7205L55.1113 33.7203L55.0806 33.7458ZM56.1914 29.6847L56.1779 29.6472L56.1777 29.6473L56.1914 29.6847ZM61.739 31.1919L61.7699 31.1667L61.7697 31.1664L61.739 31.1919ZM60.9219 32.4458L60.9611 32.4385L60.961 32.4379L60.9219 32.4458ZM60.6158 31.9101L60.6435 31.8815L60.6432 31.8812L60.6158 31.9101ZM59.9538 31.4933L59.9702 31.457L59.9538 31.4933ZM57.5762 30.8474L57.5806 30.8078L57.5762 30.8474ZM56.7835 30.869L56.7752 30.83L56.7736 30.8304L56.7835 30.869ZM56.257 31.1784L56.2273 31.1519L56.227 31.1523L56.257 31.1784ZM55.8978 32.492L55.937 32.4847L55.9369 32.4841L55.8978 32.492ZM56.1939 33.0249L56.2217 32.9963L56.2213 32.9959L56.1939 33.0249ZM56.8631 33.4545L56.8467 33.4908L56.8631 33.4545ZM60.0261 34.066L60.0178 34.027L60.0162 34.0275L60.0261 34.066ZM60.5626 33.7593L60.5329 33.7328L60.5325 33.7333L60.5626 33.7593ZM62.0467 33.4623C61.795 34.3827 61.3165 34.9635 60.6149 35.2155L60.6417 35.2905C61.3743 35.0273 61.8671 34.4213 62.1236 33.4832L62.0467 33.4623ZM60.6146 35.2156C59.9064 35.476 59.0044 35.46 57.9051 35.1613L57.8841 35.2382C58.9919 35.5391 59.9123 35.5586 60.642 35.2904L60.6146 35.2156ZM57.9051 35.1613L57.4738 35.0441L57.4527 35.121L57.8841 35.2382L57.9051 35.1613ZM57.4738 35.0441C56.3745 34.7455 55.5891 34.303 55.1115 33.7205L55.0498 33.7711C55.5419 34.3713 56.345 34.82 57.4527 35.121L57.4738 35.0441ZM55.1113 33.7203C54.6351 33.1482 54.5185 32.4058 54.7702 31.4854L54.6933 31.4645C54.4367 32.4025 54.5527 33.174 55.05 33.7713L55.1113 33.7203ZM54.7702 31.4854C55.0219 30.5651 55.5014 29.9808 56.2051 29.7221L56.1777 29.6473C55.4435 29.9173 54.9499 30.5265 54.6933 31.4645L54.7702 31.4854ZM56.2048 29.7222C56.9112 29.4684 57.8124 29.4878 58.9118 29.7864L58.9328 29.7096C57.8251 29.4086 56.9057 29.3858 56.1779 29.6472L56.2048 29.7222ZM58.9118 29.7864L59.3432 29.9036L59.3642 29.8268L58.9328 29.7096L58.9118 29.7864ZM59.3432 29.9036C60.4425 30.2023 61.2289 30.6415 61.7084 31.2174L61.7697 31.1664C61.2757 30.5731 60.4719 30.1277 59.3642 29.8268L59.3432 29.9036ZM61.7082 31.2172C62.1828 31.796 62.2985 32.542 62.0467 33.4623L62.1236 33.4832C62.3802 32.5452 62.2651 31.7706 61.7699 31.1667L61.7082 31.2172ZM60.9098 33.1534C60.9822 32.8886 61.0001 32.65 60.9611 32.4385L60.8827 32.453C60.9189 32.6498 60.903 32.8759 60.8329 33.1326L60.9098 33.1534ZM60.961 32.4379C60.9198 32.2315 60.8132 32.046 60.6435 31.8815L60.588 31.9388C60.7477 32.0936 60.8452 32.2652 60.8828 32.4536L60.961 32.4379ZM60.6432 31.8812C60.4791 31.726 60.2542 31.5849 59.9702 31.457L59.9374 31.5296C60.2163 31.6552 60.4327 31.792 60.5883 31.9391L60.6432 31.8812ZM59.9702 31.457C59.6863 31.3291 59.3361 31.2088 58.9201 31.0958L58.8991 31.1726C59.3124 31.2849 59.6584 31.404 59.9374 31.5296L59.9702 31.457ZM58.9201 31.0958L58.6693 31.0276L58.6483 31.1045L58.8991 31.1726L58.9201 31.0958ZM58.6693 31.0276C58.2534 30.9146 57.8903 30.8412 57.5806 30.8078L57.5719 30.887C57.8762 30.9198 58.2349 30.9922 58.6483 31.1045L58.6693 31.0276ZM57.5806 30.8078C57.2707 30.7743 57.002 30.7813 56.7752 30.8301L56.7919 30.9079C57.0079 30.8615 57.2676 30.8541 57.5719 30.887L57.5806 30.8078ZM56.7736 30.8304C56.5503 30.8883 56.3676 30.9952 56.2274 31.1519L56.2867 31.2049C56.4154 31.0612 56.5837 30.9619 56.7935 30.9075L56.7736 30.8304ZM56.227 31.1523C56.0857 31.3148 55.9796 31.5295 55.9072 31.7943L55.9841 31.8152C56.0543 31.5586 56.1557 31.3557 56.2871 31.2045L56.227 31.1523ZM55.9072 31.7943C55.8348 32.059 55.8177 32.2946 55.8587 32.4998L55.9369 32.4841C55.899 32.2945 55.9139 32.0719 55.9841 31.8152L55.9072 31.7943ZM55.8586 32.4992C55.8978 32.7122 56.0009 32.8972 56.1665 33.0538L56.2213 32.9959C56.0672 32.8502 55.9729 32.68 55.937 32.4847L55.8586 32.4992ZM56.1661 33.0535C56.335 33.2172 56.5624 33.3628 56.8467 33.4908L56.8796 33.4181C56.6009 33.2927 56.3821 33.1518 56.2217 32.9963L56.1661 33.0535ZM56.8467 33.4908C57.1307 33.6186 57.4809 33.739 57.8968 33.852L57.9178 33.7751C57.5045 33.6628 57.1586 33.5438 56.8796 33.4181L56.8467 33.4908ZM57.8968 33.852L58.1476 33.9201L58.1686 33.8433L57.9178 33.7751L57.8968 33.852ZM58.1476 33.9201C58.5636 34.0331 58.9266 34.1066 59.2364 34.14L59.2451 34.0608C58.9407 34.0279 58.582 33.9556 58.1686 33.8433L58.1476 33.9201ZM59.2364 34.14C59.5465 34.1735 59.8135 34.1622 60.0361 34.1046L60.0162 34.0275C59.8057 34.082 59.549 34.0936 59.2451 34.0608L59.2364 34.14ZM60.0344 34.105C60.2635 34.0557 60.4502 33.9494 60.5927 33.7854L60.5325 33.7333C60.4024 33.883 60.2315 33.9811 60.0178 34.0271L60.0344 34.105ZM60.5923 33.7859C60.7321 33.6298 60.8374 33.4182 60.9098 33.1534L60.8329 33.1326C60.7627 33.3892 60.6621 33.5885 60.5329 33.7328L60.5923 33.7859ZM58.9276 41.4711L58.9142 41.4336L58.9139 41.4337L58.9276 41.4711ZM53.3799 39.9639L53.4108 39.9386L53.4106 39.9384L53.3799 39.9639ZM54.4907 35.9028L54.4772 35.8654L54.4769 35.8655L54.4907 35.9028ZM60.0383 37.4101L60.0692 37.3848L60.069 37.3846L60.0383 37.4101ZM59.2212 38.6639L59.2604 38.6566L59.2603 38.656L59.2212 38.6639ZM58.915 38.1283L58.9428 38.0997L58.9425 38.0993L58.915 38.1283ZM58.2531 37.7114L58.2695 37.6751L58.2531 37.7114ZM55.8755 37.0655L55.8798 37.0259L55.8755 37.0655ZM55.0828 37.0871L55.0745 37.0481L55.0729 37.0486L55.0828 37.0871ZM54.5563 37.3965L54.5266 37.37L54.5262 37.3704L54.5563 37.3965ZM54.1971 38.7101L54.2363 38.7028L54.2361 38.7022L54.1971 38.7101ZM54.4932 39.243L54.521 39.2144L54.5206 39.214L54.4932 39.243ZM55.1624 39.6726L55.146 39.7089L55.1624 39.6726ZM58.3254 40.2841L58.3171 40.2452L58.3154 40.2456L58.3254 40.2841ZM58.8619 39.9775L58.8322 39.9509L58.8318 39.9514L58.8619 39.9775ZM60.346 39.6805C60.0943 40.6008 59.6158 41.1816 58.9142 41.4336L58.941 41.5086C59.6736 41.2454 60.1664 40.6394 60.4229 39.7014L60.346 39.6805ZM58.9139 41.4337C58.2057 41.6941 57.3037 41.6781 56.2044 41.3794L56.1834 41.4563C57.2912 41.7573 58.2116 41.7768 58.9413 41.5085L58.9139 41.4337ZM56.2044 41.3794L55.7731 41.2622L55.752 41.3391L56.1834 41.4563L56.2044 41.3794ZM55.7731 41.2622C54.6738 40.9636 53.8884 40.5212 53.4108 39.9386L53.3491 39.9892C53.8412 40.5894 54.6443 41.0381 55.752 41.3391L55.7731 41.2622ZM53.4106 39.9384C52.9344 39.3664 52.8178 38.6239 53.0695 37.7035L52.9926 37.6826C52.736 38.6207 52.852 39.3921 53.3493 39.9894L53.4106 39.9384ZM53.0695 37.7035C53.3212 36.7832 53.8007 36.1989 54.5044 35.9402L54.4769 35.8655C53.7428 36.1354 53.2491 36.7446 52.9926 37.6826L53.0695 37.7035ZM54.5041 35.9403C55.2105 35.6865 56.1117 35.7059 57.2111 36.0046L57.2321 35.9277C56.1244 35.6268 55.205 35.6039 54.4772 35.8654L54.5041 35.9403ZM57.2111 36.0046L57.6425 36.1218L57.6635 36.0449L57.2321 35.9277L57.2111 36.0046ZM57.6425 36.1218C58.7418 36.4204 59.5282 36.8596 60.0077 37.4356L60.069 37.3846C59.575 36.7912 58.7711 36.3458 57.6635 36.0449L57.6425 36.1218ZM60.0075 37.4353C60.4821 38.0142 60.5977 38.7601 60.346 39.6805L60.4229 39.7014C60.6795 38.7633 60.5644 37.9887 60.0692 37.3848L60.0075 37.4353ZM59.2091 39.3716C59.2815 39.1068 59.2993 38.8681 59.2604 38.6566L59.182 38.6711C59.2182 38.8679 59.2023 39.0941 59.1321 39.3507L59.2091 39.3716ZM59.2603 38.656C59.2191 38.4496 59.1125 38.2641 58.9428 38.0997L58.8873 38.1569C59.047 38.3117 59.1445 38.4833 59.1821 38.6717L59.2603 38.656ZM58.9425 38.0993C58.7784 37.9442 58.5535 37.803 58.2695 37.6751L58.2367 37.7477C58.5156 37.8733 58.732 38.0101 58.8876 38.1572L58.9425 38.0993ZM58.2695 37.6751C57.9855 37.5472 57.6354 37.4269 57.2194 37.3139L57.1984 37.3908C57.6117 37.5031 57.9577 37.6221 58.2367 37.7477L58.2695 37.6751ZM57.2194 37.3139L56.9686 37.2457L56.9476 37.3226L57.1984 37.3908L57.2194 37.3139ZM56.9686 37.2457C56.5526 37.1327 56.1896 37.0593 55.8798 37.0259L55.8712 37.1051C56.1755 37.1379 56.5342 37.2103 56.9476 37.3226L56.9686 37.2457ZM55.8798 37.0259C55.57 36.9924 55.3012 36.9994 55.0745 37.0482L55.0912 37.126C55.3072 37.0796 55.5669 37.0722 55.8712 37.1051L55.8798 37.0259ZM55.0729 37.0486C54.8496 37.1064 54.6669 37.2133 54.5266 37.37L54.586 37.423C54.7147 37.2794 54.883 37.18 55.0928 37.1257L55.0729 37.0486ZM54.5262 37.3704C54.385 37.533 54.2789 37.7476 54.2065 38.0124L54.2834 38.0333C54.3535 37.7767 54.455 37.5738 54.5864 37.4226L54.5262 37.3704ZM54.2065 38.0124C54.134 38.2772 54.117 38.5127 54.158 38.7179L54.2361 38.7022C54.1983 38.5126 54.2132 38.29 54.2834 38.0333L54.2065 38.0124ZM54.1578 38.7173C54.197 38.9303 54.3002 39.1154 54.4658 39.2719L54.5206 39.214C54.3665 39.0683 54.2722 38.8981 54.2363 38.7028L54.1578 38.7173ZM54.4654 39.2716C54.6343 39.4353 54.8617 39.5809 55.146 39.7089L55.1789 39.6363C54.9002 39.5108 54.6814 39.3699 54.521 39.2144L54.4654 39.2716ZM55.146 39.7089C55.43 39.8368 55.7802 39.9571 56.1961 40.0701L56.2171 39.9932C55.8038 39.8809 55.4578 39.7619 55.1789 39.6363L55.146 39.7089ZM56.1961 40.0701L56.4469 40.1382L56.4679 40.0614L56.2171 39.9932L56.1961 40.0701ZM56.4469 40.1382C56.8629 40.2513 57.2259 40.3247 57.5357 40.3581L57.5443 40.2789C57.24 40.2461 56.8813 40.1737 56.4679 40.0614L56.4469 40.1382ZM57.5357 40.3581C57.8458 40.3916 58.1128 40.3803 58.3353 40.3227L58.3154 40.2456C58.105 40.3001 57.8483 40.3117 57.5443 40.2789L57.5357 40.3581ZM58.3337 40.3231C58.5627 40.2739 58.7495 40.1675 58.892 40.0035L58.8318 39.9514C58.7017 40.1011 58.5308 40.1993 58.3171 40.2452L58.3337 40.3231ZM58.8916 40.004C59.0314 39.8479 59.1366 39.6363 59.2091 39.3716L59.1321 39.3507C59.0619 39.6074 58.9614 39.8067 58.8322 39.9509L58.8916 40.004ZM57.2269 47.6892L57.2134 47.6518L57.2132 47.6519L57.2269 47.6892ZM51.6792 46.182L51.7101 46.1568L51.7099 46.1565L51.6792 46.182ZM52.7899 42.121L52.7765 42.0835L52.7762 42.0836L52.7899 42.121ZM58.3376 43.6282L58.3685 43.6029L58.3683 43.6027L58.3376 43.6282ZM57.5205 44.882L57.5597 44.8747L57.5596 44.8742L57.5205 44.882ZM57.2143 44.3464L57.2421 44.3178L57.2418 44.3174L57.2143 44.3464ZM56.5524 43.9295L56.5688 43.8932L56.5524 43.9295ZM54.1748 43.2836L54.1791 43.244L54.1748 43.2836ZM53.3821 43.3052L53.3738 43.2663L53.3722 43.2667L53.3821 43.3052ZM52.8556 43.6146L52.8259 43.5881L52.8255 43.5885L52.8556 43.6146ZM52.4963 44.9282L52.5356 44.9209L52.5354 44.9204L52.4963 44.9282ZM52.7925 45.4611L52.8202 45.4325L52.8199 45.4322L52.7925 45.4611ZM53.4617 45.8907L53.4453 45.927L53.4617 45.8907ZM56.6247 46.5023L56.6163 46.4633L56.6147 46.4637L56.6247 46.5023ZM57.1612 46.1956L57.1315 46.169L57.1311 46.1695L57.1612 46.1956ZM58.6453 45.8986C58.3936 46.819 57.9151 47.3997 57.2134 47.6518L57.2403 47.7267C57.9729 47.4635 58.4657 46.8575 58.7222 45.9195L58.6453 45.8986ZM57.2132 47.6519C56.505 47.9122 55.603 47.8962 54.5037 47.5975L54.4827 47.6744C55.5905 47.9754 56.5109 47.9949 57.2406 47.7266L57.2132 47.6519ZM54.5037 47.5975L54.0723 47.4803L54.0513 47.5572L54.4827 47.6744L54.5037 47.5975ZM54.0723 47.4803C52.9731 47.1817 52.1877 46.7393 51.7101 46.1568L51.6483 46.2073C52.1405 46.8075 52.9435 47.2563 54.0513 47.5572L54.0723 47.4803ZM51.7099 46.1565C51.2336 45.5845 51.117 44.842 51.3688 43.9217L51.2919 43.9008C51.0353 44.8388 51.1513 45.6102 51.6485 46.2075L51.7099 46.1565ZM51.3688 43.9217C51.6205 43.0013 52.1 42.417 52.8037 42.1583L52.7762 42.0836C52.0421 42.3535 51.5484 42.9627 51.2919 43.9008L51.3688 43.9217ZM52.8034 42.1584C53.5098 41.9047 54.411 41.924 55.5104 42.2227L55.5314 42.1458C54.4237 41.8449 53.5043 41.822 52.7765 42.0835L52.8034 42.1584ZM55.5104 42.2227L55.9417 42.3399L55.9628 42.263L55.5314 42.1458L55.5104 42.2227ZM55.9417 42.3399C57.0411 42.6386 57.8275 43.0777 58.307 43.6537L58.3683 43.6027C57.8743 43.0093 57.0704 42.5639 55.9628 42.263L55.9417 42.3399ZM58.3068 43.6534C58.7814 44.2323 58.897 44.9782 58.6453 45.8986L58.7222 45.9195C58.9788 44.9814 58.8637 44.2068 58.3685 43.6029L58.3068 43.6534ZM57.5083 45.5897C57.5808 45.3249 57.5986 45.0862 57.5597 44.8747L57.4813 44.8893C57.5175 45.086 57.5016 45.3122 57.4314 45.5688L57.5083 45.5897ZM57.5596 44.8742C57.5184 44.6677 57.4118 44.4822 57.2421 44.3178L57.1865 44.375C57.3463 44.5298 57.4438 44.7014 57.4814 44.8898L57.5596 44.8742ZM57.2418 44.3174C57.0777 44.1623 56.8528 44.0211 56.5688 43.8932L56.5359 43.9659C56.8149 44.0914 57.0313 44.2282 57.1869 44.3753L57.2418 44.3174ZM56.5688 43.8932C56.2848 43.7654 55.9346 43.645 55.5187 43.532L55.4977 43.6089C55.911 43.7212 56.257 43.8402 56.5359 43.9659L56.5688 43.8932ZM55.5187 43.532L55.2679 43.4639L55.2469 43.5407L55.4977 43.6089L55.5187 43.532ZM55.2679 43.4639C54.8519 43.3509 54.4889 43.2774 54.1791 43.244L54.1704 43.3232C54.4748 43.356 54.8335 43.4284 55.2469 43.5407L55.2679 43.4639ZM54.1791 43.244C53.8693 43.2105 53.6005 43.2176 53.3738 43.2663L53.3904 43.3442C53.6065 43.2977 53.8662 43.2903 54.1704 43.3232L54.1791 43.244ZM53.3722 43.2667C53.1489 43.3245 52.9662 43.4314 52.8259 43.5881L52.8853 43.6412C53.014 43.4975 53.1823 43.3981 53.3921 43.3438L53.3722 43.2667ZM52.8255 43.5885C52.6843 43.7511 52.5782 43.9657 52.5057 44.2305L52.5826 44.2514C52.6528 43.9948 52.7543 43.7919 52.8857 43.6407L52.8255 43.5885ZM52.5057 44.2305C52.4333 44.4953 52.4163 44.7309 52.4572 44.936L52.5354 44.9204C52.4976 44.7307 52.5124 44.5081 52.5826 44.2514L52.5057 44.2305ZM52.4571 44.9355C52.4963 45.1484 52.5995 45.3335 52.765 45.49L52.8199 45.4322C52.6658 45.2864 52.5715 45.1162 52.5355 44.9209L52.4571 44.9355ZM52.7647 45.4897C52.9336 45.6535 53.161 45.799 53.4453 45.927L53.4781 45.8544C53.1995 45.7289 52.9807 45.588 52.8202 45.4325L52.7647 45.4897ZM53.4453 45.927C53.7293 46.0549 54.0794 46.1752 54.4954 46.2882L54.5164 46.2114C54.1031 46.0991 53.7571 45.98 53.4781 45.8544L53.4453 45.927ZM54.4954 46.2882L54.7462 46.3564L54.7672 46.2795L54.5164 46.2114L54.4954 46.2882ZM54.7462 46.3564C55.1622 46.4694 55.5252 46.5428 55.835 46.5762L55.8436 46.497C55.5393 46.4642 55.1806 46.3918 54.7672 46.2795L54.7462 46.3564ZM55.835 46.5762C56.1451 46.6097 56.412 46.5985 56.6346 46.5408L56.6147 46.4637C56.4043 46.5182 56.1476 46.5299 55.8436 46.497L55.835 46.5762ZM56.633 46.5412C56.862 46.492 57.0488 46.3857 57.1913 46.2217L57.1311 46.1695C57.001 46.3192 56.8301 46.4174 56.6163 46.4633L56.633 46.5412ZM57.1909 46.2221C57.3307 46.066 57.4359 45.8544 57.5083 45.5897L57.4314 45.5688C57.3612 45.8255 57.2607 46.0248 57.1315 46.169L57.1909 46.2221ZM55.5262 53.9074L55.5127 53.8699L55.5125 53.87L55.5262 53.9074ZM49.9785 52.4001L50.0093 52.3749L50.0092 52.3746L49.9785 52.4001ZM51.0892 48.3391L51.0758 48.3016L51.0755 48.3017L51.0892 48.3391ZM56.6369 49.8463L56.6678 49.821L56.6676 49.8208L56.6369 49.8463ZM55.8198 51.1001L55.859 51.0929L55.8589 51.0923L55.8198 51.1001ZM55.5136 50.5645L55.5414 50.5359L55.541 50.5355L55.5136 50.5645ZM54.8516 50.1477L54.8681 50.1113L54.8516 50.1477ZM52.4741 49.5017L52.4784 49.4621L52.4741 49.5017ZM51.6814 49.5233L51.6731 49.4844L51.6715 49.4848L51.6814 49.5233ZM51.1549 49.8327L51.1252 49.8062L51.1248 49.8067L51.1549 49.8327ZM50.7956 51.1463L50.8348 51.1391L50.8347 51.1385L50.7956 51.1463ZM51.0917 51.6792L51.1195 51.6506L51.1192 51.6503L51.0917 51.6792ZM51.761 52.1088L51.7446 52.1451L51.761 52.1088ZM54.924 52.7204L54.9156 52.6814L54.914 52.6818L54.924 52.7204ZM55.4605 52.4137L55.4308 52.3872L55.4304 52.3876L55.4605 52.4137ZM56.9446 52.1167C56.6929 53.0371 56.2144 53.6178 55.5127 53.8699L55.5396 53.9448C56.2722 53.6817 56.7649 53.0756 57.0215 52.1376L56.9446 52.1167ZM55.5125 53.87C54.8043 54.1303 53.9023 54.1143 52.803 53.8157L52.782 53.8925C53.8897 54.1935 54.8102 54.213 55.5399 53.9447L55.5125 53.87ZM52.803 53.8157L52.3716 53.6985L52.3506 53.7753L52.782 53.8925L52.803 53.8157ZM52.3716 53.6985C51.2724 53.3998 50.487 52.9574 50.0093 52.3749L49.9476 52.4254C50.4398 53.0256 51.2428 53.4744 52.3506 53.7753L52.3716 53.6985ZM50.0092 52.3746C49.5329 51.8026 49.4163 51.0602 49.6681 50.1398L49.5912 50.1189C49.3346 51.0569 49.4506 51.8283 49.9478 52.4256L50.0092 52.3746ZM49.6681 50.1398C49.9198 49.2194 50.3993 48.6352 51.1029 48.3765L51.0755 48.3017C50.3413 48.5716 49.8477 49.1808 49.5912 50.1189L49.6681 50.1398ZM51.1027 48.3766C51.8091 48.1228 52.7103 48.1421 53.8096 48.4408L53.8307 48.3639C52.723 48.063 51.8036 48.0401 51.0758 48.3016L51.1027 48.3766ZM53.8096 48.4408L54.241 48.558L54.262 48.4811L53.8307 48.3639L53.8096 48.4408ZM54.241 48.558C55.3404 48.8567 56.1268 49.2958 56.6062 49.8718L56.6676 49.8208C56.1736 49.2274 55.3697 48.7821 54.262 48.4811L54.241 48.558ZM56.6061 49.8716C57.0807 50.4504 57.1963 51.1963 56.9446 52.1167L57.0215 52.1376C57.2781 51.1995 57.1629 50.4249 56.6678 49.821L56.6061 49.8716ZM55.8076 51.8078C55.8801 51.543 55.8979 51.3043 55.859 51.0929L55.7806 51.1074C55.8168 51.3041 55.8009 51.5303 55.7307 51.7869L55.8076 51.8078ZM55.8589 51.0923C55.8177 50.8859 55.711 50.7003 55.5414 50.5359L55.4858 50.5931C55.6456 50.7479 55.7431 50.9195 55.7807 51.108L55.8589 51.0923ZM55.541 50.5355C55.377 50.3804 55.1521 50.2392 54.8681 50.1113L54.8352 50.184C55.1141 50.3096 55.3306 50.4463 55.4862 50.5934L55.541 50.5355ZM54.8681 50.1113C54.5841 49.9835 54.2339 49.8631 53.818 49.7501L53.7969 49.827C54.2103 49.9393 54.5562 50.0583 54.8352 50.184L54.8681 50.1113ZM53.818 49.7501L53.5672 49.682L53.5461 49.7589L53.7969 49.827L53.818 49.7501ZM53.5672 49.682C53.1512 49.569 52.7882 49.4956 52.4784 49.4621L52.4697 49.5413C52.7741 49.5742 53.1328 49.6466 53.5461 49.7589L53.5672 49.682ZM52.4784 49.4621C52.1685 49.4286 51.8998 49.4357 51.6731 49.4844L51.6897 49.5623C51.9057 49.5159 52.1655 49.5085 52.4697 49.5413L52.4784 49.4621ZM51.6715 49.4848C51.4482 49.5426 51.2655 49.6495 51.1252 49.8062L51.1846 49.8593C51.3133 49.7156 51.4816 49.6162 51.6914 49.5619L51.6715 49.4848ZM51.1248 49.8067C50.9836 49.9692 50.8775 50.1839 50.805 50.4487L50.8819 50.4696C50.9521 50.213 51.0536 50.01 51.185 49.8588L51.1248 49.8067ZM50.805 50.4487C50.7326 50.7134 50.7156 50.949 50.7565 51.1542L50.8347 51.1385C50.7969 50.9488 50.8117 50.7262 50.8819 50.4696L50.805 50.4487ZM50.7564 51.1536C50.7956 51.3665 50.8987 51.5516 51.0643 51.7082L51.1192 51.6503C50.9651 51.5045 50.8708 51.3344 50.8348 51.1391L50.7564 51.1536ZM51.064 51.7078C51.2329 51.8716 51.4603 52.0171 51.7446 52.1451L51.7774 52.0725C51.4988 51.947 51.28 51.8062 51.1195 51.6506L51.064 51.7078ZM51.7446 52.1451C52.0285 52.273 52.3787 52.3933 52.7947 52.5063L52.8157 52.4295C52.4024 52.3172 52.0564 52.1981 51.7774 52.0725L51.7446 52.1451ZM52.7947 52.5063L53.0455 52.5745L53.0665 52.4976L52.8157 52.4295L52.7947 52.5063ZM53.0455 52.5745C53.4614 52.6875 53.8245 52.7609 54.1342 52.7944L54.1429 52.7152C53.8386 52.6823 53.4799 52.6099 53.0665 52.4976L53.0455 52.5745ZM54.1342 52.7944C54.4444 52.8278 54.7113 52.8166 54.9339 52.7589L54.914 52.6818C54.7036 52.7363 54.4469 52.748 54.1429 52.7152L54.1342 52.7944ZM54.9323 52.7593C55.1613 52.7101 55.3481 52.6038 55.4906 52.4398L55.4304 52.3876C55.3003 52.5374 55.1294 52.6355 54.9156 52.6814L54.9323 52.7593ZM55.4902 52.4402C55.63 52.2841 55.7352 52.0725 55.8076 51.8078L55.7307 51.7869C55.6605 52.0436 55.56 52.2429 55.4308 52.3872L55.4902 52.4402Z" fill="#7DB092"/>
<path d="M84.8476 62.2882C84.9756 61.7782 85.4873 61.4913 85.999 61.6188L88.0779 62.1925C88.5896 62.32 88.8774 62.8301 88.7495 63.3401C88.6216 63.8501 88.1098 64.137 87.5981 64.0094L85.5193 63.4357C85.0076 63.3082 84.7197 62.7982 84.8476 62.2882Z" fill="#9FD9BA"/>
<path d="M77.3324 60.2481C77.4604 59.7381 77.9721 59.4512 78.4838 59.5787L82.9933 60.79C83.505 60.9175 83.7929 61.4275 83.665 61.9375C83.537 62.4475 83.0253 62.7344 82.5136 62.6069L78.0041 61.3957C77.4924 61.2682 77.1725 60.7581 77.3324 60.2481Z" fill="#9FD9BA"/>
<path d="M65.2104 56.9649C65.3383 56.4549 65.85 56.168 66.3617 56.2955L75.7326 58.8456C76.2443 58.9731 76.5321 59.4831 76.4042 59.9931C76.2763 60.5031 75.7646 60.79 75.2528 60.6625L65.882 58.1124C65.3703 57.9849 65.0505 57.4749 65.2104 56.9649Z" fill="#9FD9BA"/>
<path d="M105.1 69.3834V124.496C105.1 128.385 101.934 131.541 98.0317 131.541H24.5681C20.6663 131.541 17.5 128.385 17.5 124.496V69.3834C17.5 65.4945 20.6663 62.3389 24.5681 62.3389H97.9997C101.934 62.3389 105.1 65.4945 105.1 69.3834Z" fill="#F0D380"/>
<path d="M92.6584 124.209H89.1724C88.8525 124.209 88.5967 123.954 88.5967 123.636C88.5967 123.317 88.8525 123.062 89.1724 123.062H92.6584C92.9783 123.062 93.2341 123.317 93.2341 123.636C93.2341 123.954 92.9783 124.209 92.6584 124.209ZM85.7183 124.209H82.2322C81.9123 124.209 81.6565 123.954 81.6565 123.636C81.6565 123.317 81.9123 123.062 82.2322 123.062H85.7183C86.0381 123.062 86.2939 123.317 86.2939 123.636C86.2939 123.954 86.0381 124.209 85.7183 124.209ZM78.7461 124.209H75.26C74.9402 124.209 74.6843 123.954 74.6843 123.636C74.6843 123.317 74.9402 123.062 75.26 123.062H78.7461C79.0659 123.062 79.3218 123.317 79.3218 123.636C79.3538 123.954 79.0659 124.209 78.7461 124.209ZM71.8059 124.209H68.3518C68.032 124.209 67.7761 123.954 67.7761 123.636C67.7761 123.317 68.032 123.062 68.3518 123.062H71.8379C72.1577 123.062 72.4136 123.317 72.4136 123.636C72.3816 123.954 72.1257 124.209 71.8059 124.209ZM64.8657 124.209H61.3796C61.0598 124.209 60.804 123.954 60.804 123.636C60.804 123.317 61.0598 123.062 61.3796 123.062H64.8657C65.1855 123.062 65.4414 123.317 65.4414 123.636C65.4414 123.954 65.1855 124.209 64.8657 124.209ZM57.9255 124.209H54.4395C54.1196 124.209 53.8638 123.954 53.8638 123.636C53.8638 123.317 54.1196 123.062 54.4395 123.062H57.9255C58.2454 123.062 58.5012 123.317 58.5012 123.636C58.5012 123.954 58.2454 124.209 57.9255 124.209ZM50.9853 124.209H47.4993C47.1794 124.209 46.9236 123.954 46.9236 123.636C46.9236 123.317 47.1794 123.062 47.4993 123.062H50.9853C51.3052 123.062 51.561 123.317 51.561 123.636C51.561 123.954 51.3052 124.209 50.9853 124.209ZM44.0452 124.209H40.5591C40.2393 124.209 39.9834 123.954 39.9834 123.636C39.9834 123.317 40.2393 123.062 40.5591 123.062H44.0452C44.365 123.062 44.6208 123.317 44.6208 123.636C44.6208 123.954 44.365 124.209 44.0452 124.209ZM37.073 124.209H33.6189C33.2991 124.209 33.0432 123.954 33.0432 123.636C33.0432 123.317 33.2991 123.062 33.6189 123.062H37.105C37.4248 123.062 37.6807 123.317 37.6807 123.636C37.6487 123.954 37.3928 124.209 37.073 124.209ZM30.1328 124.209H29.781C28.5977 124.209 27.4463 123.763 26.5508 122.998C26.3269 122.775 26.2949 122.424 26.4868 122.201C26.7107 121.978 27.0625 121.946 27.2864 122.137C27.958 122.743 28.8535 123.062 29.749 123.062H30.1008C30.4207 123.062 30.6765 123.317 30.6765 123.636C30.7085 123.954 30.4526 124.209 30.1328 124.209ZM95.7927 122.998C95.6328 122.998 95.5049 122.934 95.3769 122.807C95.1531 122.584 95.1531 122.201 95.3769 122.01C96.1125 121.309 96.5283 120.352 96.5283 119.332C96.5283 119.014 96.7842 118.759 97.104 118.759C97.4238 118.759 97.6797 119.014 97.6797 119.332V119.364C97.6797 120.703 97.136 121.946 96.1765 122.871C96.0806 122.966 95.9526 122.998 95.7927 122.998ZM25.4634 120.097C25.1436 120.097 24.8877 119.842 24.8877 119.556C24.8877 119.492 24.8877 119.396 24.8877 119.332V116.081C24.8877 115.762 25.1436 115.507 25.4634 115.507C25.7832 115.507 26.0391 115.762 26.0391 116.081V119.332C26.0391 119.396 26.0391 119.46 26.0391 119.492C26.071 119.811 25.8152 120.097 25.4634 120.097C25.4954 120.097 25.4954 120.097 25.4634 120.097ZM97.136 116.432C96.8162 116.432 96.5603 116.177 96.5603 115.858V112.384C96.5603 112.065 96.8162 111.81 97.136 111.81C97.4558 111.81 97.7117 112.065 97.7117 112.384V115.858C97.7117 116.177 97.4558 116.432 97.136 116.432ZM25.4634 113.18C25.1436 113.18 24.8877 112.925 24.8877 112.607V109.132C24.8877 108.813 25.1436 108.558 25.4634 108.558C25.7832 108.558 26.0391 108.813 26.0391 109.132V112.607C26.0391 112.925 25.7832 113.18 25.4634 113.18ZM97.136 109.515C96.8162 109.515 96.5603 109.26 96.5603 108.941V105.467C96.5603 105.148 96.8162 104.893 97.136 104.893C97.4558 104.893 97.7117 105.148 97.7117 105.467V108.941C97.7117 109.26 97.4558 109.515 97.136 109.515ZM25.4634 106.263C25.1436 106.263 24.8877 106.008 24.8877 105.69V102.215C24.8877 101.896 25.1436 101.641 25.4634 101.641C25.7832 101.641 26.0391 101.896 26.0391 102.215V105.69C26.0391 106.008 25.7832 106.263 25.4634 106.263ZM97.136 102.598C96.8162 102.598 96.5603 102.343 96.5603 102.024V98.5496C96.5603 98.2308 96.8162 97.9758 97.136 97.9758C97.4558 97.9758 97.7117 98.2308 97.7117 98.5496V102.024C97.7117 102.343 97.4558 102.598 97.136 102.598ZM25.4634 99.3464C25.1436 99.3464 24.8877 99.0914 24.8877 98.7727V95.2982C24.8877 94.9795 25.1436 94.7245 25.4634 94.7245C25.7832 94.7245 26.0391 94.9795 26.0391 95.2982V98.7727C26.0391 99.0914 25.7832 99.3464 25.4634 99.3464ZM97.136 95.6489C96.8162 95.6489 96.5603 95.3939 96.5603 95.0751V91.6326C96.5603 91.3138 96.8162 91.0588 97.136 91.0588C97.4558 91.0588 97.7117 91.3138 97.7117 91.6326V95.107C97.7117 95.3939 97.4558 95.6489 97.136 95.6489ZM25.4634 92.4294C25.1436 92.4294 24.8877 92.1744 24.8877 91.8557V88.3813C24.8877 88.0625 25.1436 87.8075 25.4634 87.8075C25.7832 87.8075 26.0391 88.0625 26.0391 88.3813V91.8557C26.0391 92.1744 25.7832 92.4294 25.4634 92.4294ZM97.136 88.7319C96.8162 88.7319 96.5603 88.4769 96.5603 88.1581V84.6837C96.5603 84.3649 96.8162 84.1099 97.136 84.1099C97.4558 84.1099 97.7117 84.3649 97.7117 84.6837V88.1581C97.7117 88.4769 97.4558 88.7319 97.136 88.7319ZM25.4634 85.4806C25.1436 85.4806 24.8877 85.2256 24.8877 84.9068V81.4324C24.8877 81.1136 25.1436 80.8586 25.4634 80.8586C25.7832 80.8586 26.0391 81.1136 26.0391 81.4324V84.9068C26.0391 85.2256 25.7832 85.4806 25.4634 85.4806ZM97.136 81.8149C96.8162 81.8149 96.5603 81.5599 96.5603 81.2411V77.7667C96.5603 77.4479 96.8162 77.1929 97.136 77.1929C97.4558 77.1929 97.7117 77.4479 97.7117 77.7667V81.2411C97.7117 81.5599 97.4558 81.8149 97.136 81.8149ZM25.4634 78.5636C25.1436 78.5636 24.8877 78.3086 24.8877 77.9898V74.5154C24.8877 74.1966 25.1436 73.9416 25.4634 73.9416C25.7832 73.9416 26.0391 74.1966 26.0391 74.5154V77.9898C26.0391 78.3086 25.7832 78.5636 25.4634 78.5636ZM97.136 74.8979C96.8162 74.8979 96.5603 74.6429 96.5603 74.356C96.4963 73.336 96.0486 72.4116 95.281 71.7422C95.0571 71.5191 95.0251 71.1685 95.217 70.9453C95.4409 70.7222 95.7927 70.6903 96.0166 70.8816C97.04 71.7741 97.6157 72.9854 97.6797 74.3241C97.7117 74.611 97.4558 74.866 97.136 74.8979ZM26.7747 71.9972C26.6147 71.9972 26.4868 71.9335 26.3589 71.8378C26.135 71.6147 26.135 71.2322 26.3589 71.041C27.2864 70.1484 28.5017 69.6703 29.781 69.6703H29.9409C30.2607 69.6703 30.5166 69.9253 30.5166 70.2441C30.5166 70.5628 30.2607 70.8178 29.9409 70.8178H29.781C28.7896 70.8178 27.8621 71.2003 27.1904 71.8697C27.0625 71.9653 26.9346 71.9972 26.7747 71.9972ZM92.4346 70.7859H88.9485C88.6287 70.7859 88.3728 70.5309 88.3728 70.2122C88.3728 69.8934 88.6287 69.6384 88.9485 69.6384H92.4346C92.7544 69.6384 93.0102 69.8934 93.0102 70.2122C93.0102 70.5309 92.7544 70.7859 92.4346 70.7859ZM85.4944 70.7859H82.0083C81.6885 70.7859 81.4326 70.5309 81.4326 70.2122C81.4326 69.8934 81.6885 69.6384 82.0083 69.6384H85.4944C85.8142 69.6384 86.0701 69.8934 86.0701 70.2122C86.0701 70.5309 85.8142 70.7859 85.4944 70.7859ZM78.5542 70.7859H75.0681C74.7483 70.7859 74.4924 70.5309 74.4924 70.2122C74.4924 69.8934 74.7483 69.6384 75.0681 69.6384H78.5542C78.874 69.6384 79.1299 69.8934 79.1299 70.2122C79.1299 70.5309 78.874 70.7859 78.5542 70.7859ZM71.614 70.7859H68.1279C67.8081 70.7859 67.5522 70.5309 67.5522 70.2122C67.5522 69.8934 67.8081 69.6384 68.1279 69.6384H71.614C71.9338 69.6384 72.1897 69.8934 72.1897 70.2122C72.1897 70.5309 71.9338 70.7859 71.614 70.7859ZM64.6738 70.7859H61.1877C60.8679 70.7859 60.6121 70.5309 60.6121 70.2122C60.6121 69.8934 60.8679 69.6384 61.1877 69.6384H64.6738C64.9936 69.6384 65.2495 69.8934 65.2495 70.2122C65.2495 70.5309 64.9936 70.7859 64.6738 70.7859ZM57.7017 70.7859H54.2156C53.8958 70.7859 53.6399 70.5309 53.6399 70.2122C53.6399 69.8934 53.8958 69.6384 54.2156 69.6384H57.7017C58.0215 69.6384 58.2773 69.8934 58.2773 70.2122C58.2773 70.5309 58.0215 70.7859 57.7017 70.7859ZM50.7615 70.7859H47.3074C46.9875 70.7859 46.7317 70.5309 46.7317 70.2122C46.7317 69.8934 46.9875 69.6384 47.3074 69.6384H50.7615C51.0813 69.6384 51.3372 69.8934 51.3372 70.2122C51.3372 70.5309 51.0813 70.7859 50.7615 70.7859ZM43.8213 70.7859H40.3672C40.0474 70.7859 39.7915 70.5309 39.7915 70.2122C39.7915 69.8934 40.0474 69.6384 40.3672 69.6384H43.8533C44.1731 69.6384 44.429 69.8934 44.429 70.2122C44.429 70.5309 44.1411 70.7859 43.8213 70.7859ZM36.8811 70.7859H33.395C33.0752 70.7859 32.8193 70.5309 32.8193 70.2122C32.8193 69.8934 33.0752 69.6384 33.395 69.6384H36.8811C37.2009 69.6384 37.4568 69.8934 37.4568 70.2122C37.4568 70.5309 37.2009 70.7859 36.8811 70.7859Z" fill="#EAC56A"/>
<path d="M131.869 142.378C131.869 143.558 131.901 144.769 131.901 145.948C131.901 146.873 130.75 147.797 128.351 148.562C123.202 150.22 114.279 150.475 108.458 149.168C105.323 148.467 103.724 147.415 103.724 146.363L103.692 142.793C103.692 143.845 105.291 144.896 108.426 145.598C114.247 146.936 123.138 146.681 128.319 144.992C130.718 144.227 131.901 143.271 131.869 142.378Z" fill="#FFBE55"/>
<path d="M131.869 142.378C131.869 143.558 131.901 144.769 131.901 145.948C131.901 146.873 130.75 147.797 128.351 148.562C123.202 150.22 114.279 150.475 108.458 149.168C105.323 148.467 103.724 147.415 103.724 146.363L103.692 142.793C103.692 143.845 105.291 144.896 108.426 145.598C114.247 146.936 123.138 146.681 128.319 144.992C130.718 144.227 131.901 143.271 131.869 142.378Z" fill="#EDB648"/>
<path d="M127.136 139.573C132.957 140.912 133.501 143.335 128.319 144.992C123.17 146.65 114.247 146.905 108.426 145.598C102.606 144.259 102.062 141.836 107.243 140.179C112.424 138.521 121.315 138.235 127.136 139.573ZM110.057 145.056C114.855 146.172 122.243 145.948 126.528 144.546C130.814 143.175 130.366 141.167 125.537 140.051C120.708 138.936 113.352 139.159 109.066 140.561C104.812 141.964 105.228 143.972 110.057 145.056Z" fill="#FFBE55"/>
<path d="M127.136 139.573C132.957 140.912 133.501 143.335 128.319 144.992C123.17 146.65 114.247 146.905 108.426 145.598C102.606 144.259 102.062 141.836 107.243 140.179C112.424 138.521 121.315 138.235 127.136 139.573ZM110.057 145.056C114.855 146.172 122.243 145.948 126.528 144.546C130.814 143.175 130.366 141.167 125.537 140.051C120.708 138.936 113.352 139.159 109.066 140.561C104.812 141.964 105.228 143.972 110.057 145.056Z" fill="#FFE299"/>
<path d="M125.537 140.083C130.335 141.199 130.782 143.207 126.529 144.578C122.243 145.948 114.887 146.172 110.058 145.088C105.26 143.972 104.813 141.964 109.066 140.593C113.352 139.223 120.708 138.968 125.537 140.083Z" fill="#F2CB6B"/>
<path d="M109.065 141.04C113.351 139.669 120.707 139.446 125.536 140.53C127.935 141.072 129.246 141.837 129.438 142.665C129.694 141.709 128.383 140.753 125.536 140.083C120.739 138.968 113.351 139.191 109.065 140.593C106.922 141.295 105.963 142.123 106.155 142.952C106.347 142.251 107.306 141.582 109.065 141.04Z" fill="#EDB648"/>
<path d="M130.302 137.948C130.302 139.127 130.334 140.338 130.334 141.518C130.334 142.442 129.183 143.366 126.784 144.131C121.635 145.789 112.712 146.044 106.891 144.737C103.757 144.036 102.158 142.984 102.158 141.932L102.126 138.362C102.126 139.414 103.725 140.466 106.859 141.167C112.68 142.506 121.571 142.251 126.752 140.561C129.151 139.796 130.334 138.872 130.302 137.948Z" fill="#FFBE55"/>
<path d="M130.302 137.948C130.302 139.127 130.334 140.338 130.334 141.518C130.334 142.442 129.183 143.366 126.784 144.131C121.635 145.789 112.712 146.044 106.891 144.737C103.757 144.036 102.158 142.984 102.158 141.932L102.126 138.362C102.126 139.414 103.725 140.466 106.859 141.167C112.68 142.506 121.571 142.251 126.752 140.561C129.151 139.796 130.334 138.872 130.302 137.948Z" fill="#EDB648"/>
<path d="M125.569 135.143C131.39 136.481 131.933 138.904 126.752 140.561C121.603 142.219 112.68 142.474 106.859 141.167C101.038 139.828 100.495 137.406 105.676 135.748C110.857 134.091 119.748 133.804 125.569 135.143ZM108.49 140.657C113.287 141.773 120.675 141.55 124.961 140.147C129.247 138.776 128.799 136.768 123.97 135.653C119.172 134.537 111.784 134.76 107.499 136.163C103.245 137.533 103.661 139.541 108.49 140.657Z" fill="#FFBE55"/>
<path d="M125.569 135.143C131.39 136.481 131.933 138.904 126.752 140.561C121.603 142.219 112.68 142.474 106.859 141.167C101.038 139.828 100.495 137.406 105.676 135.748C110.857 134.091 119.748 133.804 125.569 135.143ZM108.49 140.657C113.287 141.773 120.675 141.55 124.961 140.147C129.247 138.776 128.799 136.768 123.97 135.653C119.172 134.537 111.784 134.76 107.499 136.163C103.245 137.533 103.661 139.541 108.49 140.657Z" fill="#FFE299"/>
<path d="M123.969 135.653C128.766 136.768 129.214 138.776 124.96 140.147C120.675 141.518 113.319 141.741 108.489 140.657C103.692 139.541 103.244 137.533 107.498 136.163C111.784 134.792 119.14 134.569 123.969 135.653Z" fill="#F2CB6B"/>
<path d="M107.499 136.609C111.784 135.238 119.14 135.015 123.97 136.099C126.368 136.641 127.68 137.406 127.872 138.235C128.127 137.278 126.816 136.322 123.97 135.653C119.172 134.537 111.784 134.76 107.499 136.163C105.356 136.864 104.397 137.693 104.588 138.521C104.78 137.82 105.74 137.183 107.499 136.609Z" fill="#EDB648"/>
<path d="M133.468 133.74C133.468 134.919 133.5 136.131 133.5 137.31C133.5 138.234 132.348 139.159 129.949 139.924C124.8 141.581 115.877 141.836 110.056 140.529C106.922 139.828 105.323 138.776 105.323 137.724L105.291 134.154C105.291 135.206 106.89 136.258 110.024 136.959C115.845 138.298 124.736 138.043 129.917 136.354C132.316 135.589 133.5 134.664 133.468 133.74Z" fill="#FFBE55"/>
<path d="M133.468 133.74C133.468 134.919 133.5 136.131 133.5 137.31C133.5 138.234 132.348 139.159 129.949 139.924C124.8 141.581 115.877 141.836 110.056 140.529C106.922 139.828 105.323 138.776 105.323 137.724L105.291 134.154C105.291 135.206 106.89 136.258 110.024 136.959C115.845 138.298 124.736 138.043 129.917 136.354C132.316 135.589 133.5 134.664 133.468 133.74Z" fill="#EDB648"/>
<path d="M128.735 130.935C134.556 132.274 135.099 134.696 129.918 136.354C124.769 138.011 115.846 138.266 110.025 136.959C104.204 135.621 103.661 133.198 108.842 131.541C114.023 129.883 122.914 129.596 128.735 130.935ZM111.656 136.449C116.453 137.565 123.841 137.342 128.127 135.939C132.413 134.569 131.965 132.561 127.136 131.445C122.306 130.329 114.95 130.552 110.665 131.955C106.411 133.326 106.827 135.334 111.656 136.449Z" fill="#FFBE55"/>
<path d="M128.735 130.935C134.556 132.274 135.099 134.696 129.918 136.354C124.769 138.011 115.846 138.266 110.025 136.959C104.204 135.621 103.661 133.198 108.842 131.541C114.023 129.883 122.914 129.596 128.735 130.935ZM111.656 136.449C116.453 137.565 123.841 137.342 128.127 135.939C132.413 134.569 131.965 132.561 127.136 131.445C122.306 130.329 114.95 130.552 110.665 131.955C106.411 133.326 106.827 135.334 111.656 136.449Z" fill="#FFE299"/>
<path d="M127.136 131.445C131.933 132.561 132.381 134.569 128.127 135.939C123.842 137.31 116.486 137.533 111.656 136.449C106.859 135.334 106.411 133.326 110.665 131.955C114.951 130.584 122.307 130.361 127.136 131.445Z" fill="#F2CB6B"/>
<path d="M110.665 132.401C114.95 131.031 122.306 130.807 127.136 131.891C129.534 132.433 130.846 133.198 131.038 134.027C131.293 133.071 129.982 132.114 127.136 131.445C122.338 130.329 114.95 130.552 110.665 131.955C108.522 132.656 107.563 133.485 107.754 134.314C107.946 133.613 108.906 132.975 110.665 132.401Z" fill="#EDB648"/>
<path d="M109.833 91.76V102.088C109.833 104.478 107.914 106.391 105.515 106.391H90.2918C85.0466 106.391 80.793 102.151 80.793 96.9238C80.793 91.6962 85.0466 87.4568 90.2918 87.4568H105.515C107.882 87.4568 109.833 89.3693 109.833 91.76Z" fill="#E5BD65"/>
</g>
<defs>
<clipPath id="clip0_326_579">
<rect width="150" height="150" fill="white" transform="translate(0.5)"/>
</clipPath>
</defs>
</svg>
