<svg width="151" height="150" viewBox="0 0 151 150" fill="none" xmlns="http://www.w3.org/2000/svg">
<g clip-path="url(#clip0_631_674)">
<path d="M24.9446 116.094L51.2981 19.6706C51.6179 18.4593 52.8652 17.758 54.0806 18.0768L97.8325 29.9664C99.0478 30.2851 99.7514 31.5283 99.4316 32.7395L73.0781 129.163C72.7583 130.374 71.511 131.076 70.2956 130.757L26.5437 118.867C25.3284 118.549 24.5928 117.305 24.9446 116.094Z" fill="#D0F1E0"/>
<path d="M24.9768 115.998L41.1919 56.6777C41.5117 55.4664 42.791 54.7333 44.0063 55.0839L87.7263 66.9735C88.9417 67.2923 89.6772 68.5673 89.3254 69.7786L73.1103 129.099C72.7905 130.31 71.5112 131.043 70.2959 130.693L26.5759 118.803C25.3606 118.484 24.625 117.209 24.9768 115.998Z" fill="#9FD9BA"/>
<path d="M45.8931 55.5943C44.3899 61.1088 42.503 68.0576 40.9678 73.5721C40.616 74.7834 40.616 75.8353 41.5435 76.8234C42.1512 77.4609 42.503 78.3216 42.503 79.1822C42.535 81.541 43.6224 83.581 44.4219 85.6848C45.2854 88.0117 46.053 88.458 48.5157 88.3624C49.795 88.3305 50.9463 88.713 52.1297 89.0317C53.9847 89.5099 55.8077 90.0836 57.6626 90.5299C61.2127 91.3905 63.8992 93.4943 66.3299 96.0444C66.7776 96.5225 67.3533 96.905 67.865 97.3512C69.0484 98.435 69.0164 99.2638 67.6092 100.029C66.5538 100.571 66.5218 101.081 67.1294 102.037C68.1849 103.694 67.5772 104.715 65.6263 105.129C61.3726 106.053 57.2149 106.053 53.0572 104.619C51.1062 103.949 48.8355 104.428 46.9805 102.961C46.181 102.324 45.6373 100.985 44.358 101.24C42.6309 101.559 41.1277 102.483 39.7845 103.567C37.9615 104.97 36.938 107.296 35.0831 108.476C30.9253 111.026 29.2623 114.851 28.4947 119.314C26.032 118.676 26 118.612 26.6397 116.19C31.8848 97.0325 37.0979 77.8753 42.3431 58.75C42.9827 56.2955 43.4624 54.8611 45.8931 55.5943Z" fill="#7DB092"/>
<path d="M68.8242 130.278L86.2546 66.5273L89.9326 67.5155L73.1099 129.035C72.79 130.247 71.5107 130.98 70.2954 130.629L68.8242 130.278Z" fill="#7DB092"/>
<path d="M25.0725 116.031L41.8953 54.5107L45.5732 55.4989L28.1428 119.25L26.6716 118.836C25.4563 118.517 24.7207 117.242 25.0725 116.031Z" fill="#7DB092"/>
<path d="M63.5492 27.9231C63.4962 28.117 63.4089 28.2656 63.2872 28.369C63.1655 28.4724 63.0077 28.4978 62.8137 28.4451L56.6641 26.7743C56.4702 26.7216 56.3471 26.62 56.2949 26.4693C56.2427 26.3187 56.2404 26.1565 56.2879 25.9827C56.3354 25.8089 56.42 25.6703 56.5417 25.5669C56.6634 25.4635 56.8212 25.4381 57.0152 25.4908L62.2117 26.9026L61.8232 25.4074C61.7752 25.2149 61.7981 25.0523 61.8919 24.9198C61.9923 24.7891 62.127 24.7036 62.2961 24.6634C62.45 24.6262 62.6002 24.6418 62.7467 24.7104C62.8932 24.7789 62.9889 24.9018 63.0338 25.0792L63.5133 27.03C63.5594 27.2293 63.5851 27.3979 63.5905 27.5358C63.5959 27.6737 63.5822 27.8028 63.5492 27.9231ZM62.0852 33.473C61.831 34.4022 61.3454 34.9956 60.6283 35.2533C59.9094 35.5176 58.9981 35.4998 57.8946 35.2L57.4633 35.0828C56.3597 34.783 55.5655 34.3374 55.0806 33.746C54.5939 33.1614 54.4776 32.4044 54.7317 31.4752C54.9859 30.546 55.4724 29.9493 56.1914 29.685C56.9085 29.4274 57.8188 29.4484 58.9223 29.7483L59.3537 29.8655C60.4572 30.1653 61.2523 30.6075 61.739 31.1922C62.2239 31.7836 62.3393 32.5438 62.0852 33.473ZM60.8713 33.1432C60.9426 32.8825 60.9595 32.6501 60.9219 32.446C60.8825 32.2486 60.7805 32.07 60.6158 31.9104C60.4559 31.7592 60.2353 31.6203 59.9538 31.4935C59.6723 31.3668 59.3243 31.2471 58.9096 31.1345L58.6588 31.0663C58.2441 30.9537 57.8833 30.8808 57.5762 30.8476C57.2691 30.8144 57.0049 30.8217 56.7835 30.8692C56.567 30.9253 56.3915 31.0285 56.257 31.1786C56.1207 31.3355 56.0169 31.5443 55.9456 31.805C55.8743 32.0657 55.8584 32.2948 55.8978 32.4922C55.9353 32.6963 56.0341 32.874 56.1939 33.0251C56.3586 33.1848 56.5817 33.328 56.8631 33.4547C57.1446 33.5814 57.4927 33.7011 57.9073 33.8138L58.1581 33.8819C58.5728 33.9946 58.9337 34.0675 59.2407 34.1007C59.5478 34.1338 59.8096 34.1223 60.0261 34.0663C60.2475 34.0187 60.4263 33.9165 60.5626 33.7596C60.6971 33.6094 60.8 33.404 60.8713 33.1432ZM60.3845 39.6911C60.1303 40.6203 59.6447 41.2138 58.9276 41.4714C58.2087 41.7357 57.2974 41.7179 56.1939 41.4181L55.7625 41.3009C54.659 41.0011 53.8648 40.5555 53.3799 39.9642C52.8932 39.3795 52.7769 38.6225 53.031 37.6933C53.2852 36.7641 53.7717 36.1674 54.4907 35.9031C55.2078 35.6455 56.1181 35.6666 57.2216 35.9664L57.653 36.0836C58.7565 36.3834 59.5516 36.8256 60.0383 37.4103C60.5232 38.0017 60.6386 38.762 60.3845 39.6911ZM59.1706 39.3614C59.2419 39.1006 59.2588 38.8682 59.2212 38.6641C59.1818 38.4667 59.0797 38.2882 58.915 38.1285C58.7552 37.9774 58.5345 37.8384 58.2531 37.7117C57.9716 37.5849 57.6235 37.4652 57.2089 37.3526L56.9581 37.2844C56.5434 37.1718 56.1826 37.0989 55.8755 37.0657C55.5684 37.0326 55.3042 37.0398 55.0828 37.0874C54.8663 37.1434 54.6908 37.2466 54.5563 37.3968C54.42 37.5536 54.3162 37.7624 54.2449 38.0231C54.1736 38.2838 54.1576 38.5129 54.1971 38.7103C54.2346 38.9144 54.3333 39.0921 54.4932 39.2432C54.6579 39.4029 54.881 39.5461 55.1624 39.6728C55.4439 39.7996 55.792 39.9193 56.2066 40.0319L56.4574 40.1001C56.8721 40.2127 57.2329 40.2856 57.54 40.3188C57.8471 40.3519 58.1089 40.3405 58.3254 40.2844C58.5468 40.2368 58.7256 40.1346 58.8619 39.9777C58.9964 39.8275 59.0993 39.6221 59.1706 39.3614ZM58.6838 45.9093C58.4296 46.8385 57.944 47.4319 57.2269 47.6895C56.5079 47.9538 55.5967 47.936 54.4932 47.6362L54.0618 47.519C52.9583 47.2192 52.1641 46.7736 51.6792 46.1823C51.1925 45.5976 51.0762 44.8407 51.3303 43.9115C51.5845 42.9823 52.071 42.3855 52.7899 42.1212C53.507 41.8636 54.4174 41.8847 55.5209 42.1845L55.9523 42.3017C57.0558 42.6015 57.8509 43.0437 58.3376 43.6284C58.8225 44.2198 58.9379 44.9801 58.6838 45.9093ZM57.4699 45.5795C57.5412 45.3188 57.5581 45.0864 57.5205 44.8822C57.4811 44.6848 57.379 44.5063 57.2143 44.3466C57.0545 44.1955 56.8338 44.0565 56.5524 43.9298C56.2709 43.803 55.9228 43.6833 55.5082 43.5707L55.2574 43.5025C54.8427 43.3899 54.4819 43.317 54.1748 43.2838C53.8677 43.2507 53.6035 43.2579 53.3821 43.3055C53.1656 43.3615 52.9901 43.4647 52.8556 43.6149C52.7193 43.7717 52.6155 43.9805 52.5442 44.2412C52.4729 44.502 52.4569 44.731 52.4963 44.9284C52.5339 45.1326 52.6326 45.3102 52.7925 45.4613C52.9572 45.621 53.1802 45.7642 53.4617 45.8909C53.7432 46.0177 54.0913 46.1374 54.5059 46.25L54.7567 46.3182C55.1714 46.4308 55.5322 46.5037 55.8393 46.5369C56.1464 46.57 56.4082 46.5586 56.6247 46.5025C56.8461 46.4549 57.0249 46.3527 57.1612 46.1958C57.2957 46.0456 57.3986 45.8402 57.4699 45.5795ZM56.983 52.1274C56.7289 53.0566 56.2433 53.65 55.5262 53.9076C54.8072 54.1719 53.896 54.1542 52.7925 53.8543L52.3611 53.7371C51.2576 53.4373 50.4634 52.9918 49.9785 52.4004C49.4918 51.8157 49.3755 51.0588 49.6296 50.1296C49.8838 49.2004 50.3703 48.6036 51.0892 48.3393C51.8063 48.0817 52.7166 48.1028 53.8202 48.4026L54.2515 48.5198C55.3551 48.8196 56.1502 49.2619 56.6369 49.8465C57.1218 50.4379 57.2372 51.1982 56.983 52.1274ZM55.7692 51.7976C55.8405 51.5369 55.8573 51.3045 55.8198 51.1004C55.7804 50.9029 55.6783 50.7244 55.5136 50.5647C55.3538 50.4136 55.1331 50.2746 54.8516 50.1479C54.5702 50.0212 54.2221 49.9015 53.8075 49.7888L53.5567 49.7207C53.142 49.608 52.7811 49.5351 52.4741 49.5019C52.167 49.4688 51.9028 49.476 51.6814 49.5236C51.4649 49.5797 51.2894 49.6828 51.1549 49.833C51.0186 49.9899 50.9148 50.1986 50.8435 50.4594C50.7722 50.7201 50.7562 50.9491 50.7956 51.1466C50.8332 51.3507 50.9319 51.5283 51.0917 51.6795C51.2564 51.8391 51.4795 51.9823 51.761 52.1091C52.0425 52.2358 52.3905 52.3555 52.8052 52.4682L53.056 52.5363C53.4706 52.6489 53.8315 52.7218 54.1386 52.755C54.4457 52.7882 54.7074 52.7767 54.924 52.7206C55.1453 52.673 55.3242 52.5708 55.4605 52.4139C55.595 52.2638 55.6979 52.0583 55.7692 51.7976Z" fill="#7DB092"/>
<path d="M63.2872 28.369L63.2614 28.3387L63.2872 28.369ZM56.2949 26.4693L56.2572 26.4824L56.2572 26.4824L56.2949 26.4693ZM56.5417 25.5669L56.5675 25.5972L56.5417 25.5669ZM62.2117 26.9026L62.2012 26.9411L62.2676 26.9591L62.2503 26.8926L62.2117 26.9026ZM61.8232 25.4074L61.7845 25.4171L61.7846 25.4175L61.8232 25.4074ZM61.8919 24.9198L61.8602 24.8956L61.8593 24.8968L61.8919 24.9198ZM62.2961 24.6634L62.3053 24.7021L62.3054 24.7021L62.2961 24.6634ZM62.7467 24.7104L62.7297 24.7464L62.7467 24.7104ZM63.0338 25.0792L63.0725 25.0697L63.0724 25.0694L63.0338 25.0792ZM63.5133 27.03L63.5521 27.021L63.552 27.0205L63.5133 27.03ZM63.5108 27.9127C63.4593 28.1008 63.3755 28.2417 63.2614 28.3387L63.313 28.3994C63.4422 28.2895 63.5331 28.1332 63.5877 27.9336L63.5108 27.9127ZM63.2614 28.3387C63.1523 28.4313 63.0092 28.4569 62.8242 28.4066L62.8032 28.4835C63.0062 28.5386 63.1787 28.5135 63.313 28.3994L63.2614 28.3387ZM62.8242 28.4066L56.6746 26.7359L56.6536 26.8128L62.8032 28.4835L62.8242 28.4066ZM56.6746 26.7359C56.4897 26.6856 56.3794 26.5912 56.3326 26.4562L56.2572 26.4824C56.3149 26.6487 56.4507 26.7576 56.6536 26.8128L56.6746 26.7359ZM56.3326 26.4562C56.2833 26.3142 56.2807 26.1602 56.3264 25.9931L56.2494 25.9722C56.2001 26.1527 56.2021 26.3232 56.2572 26.4824L56.3326 26.4562ZM56.3264 25.9931C56.3721 25.826 56.4527 25.6947 56.5675 25.5972L56.5159 25.5365C56.3874 25.6458 56.2988 25.7917 56.2494 25.9722L56.3264 25.9931ZM56.5675 25.5972C56.6766 25.5045 56.8197 25.479 57.0047 25.5293L57.0257 25.4524C56.8228 25.3973 56.6503 25.4224 56.5159 25.5365L56.5675 25.5972ZM57.0047 25.5293L62.2012 26.9411L62.2223 26.8642L57.0257 25.4524L57.0047 25.5293ZM62.2503 26.8926L61.8618 25.3974L61.7846 25.4175L62.1732 26.9127L62.2503 26.8926ZM61.8619 25.3978C61.816 25.2137 61.8389 25.0637 61.9244 24.9428L61.8593 24.8968C61.7574 25.0409 61.7344 25.216 61.7845 25.4171L61.8619 25.3978ZM61.9235 24.944C62.018 24.821 62.1446 24.7403 62.3053 24.7021L62.2869 24.6246C62.1095 24.6669 61.9666 24.7572 61.8603 24.8956L61.9235 24.944ZM62.3054 24.7021C62.4503 24.6671 62.5912 24.6817 62.7297 24.7464L62.7636 24.6743C62.6091 24.602 62.4497 24.5853 62.2868 24.6246L62.3054 24.7021ZM62.7297 24.7464C62.8639 24.8092 62.9527 24.9215 62.9951 25.089L63.0724 25.0694C63.0251 24.8822 62.9225 24.7486 62.7636 24.6743L62.7297 24.7464ZM62.9951 25.0888L63.4746 27.0396L63.552 27.0205L63.0725 25.0697L62.9951 25.0888ZM63.4745 27.0391C63.5202 27.2369 63.5454 27.4029 63.5507 27.5374L63.6304 27.5342C63.6248 27.3929 63.5986 27.2217 63.5521 27.021L63.4745 27.0391ZM63.5507 27.5374C63.5559 27.6717 63.5425 27.7967 63.5108 27.9127L63.5877 27.9336C63.6218 27.8089 63.6359 27.6757 63.6304 27.5342L63.5507 27.5374ZM60.6283 35.2533L60.6149 35.2158L60.6146 35.2159L60.6283 35.2533ZM55.0806 33.746L55.1115 33.7208L55.1113 33.7205L55.0806 33.746ZM56.1914 29.685L56.1779 29.6475L56.1777 29.6476L56.1914 29.685ZM61.739 31.1922L61.7699 31.1669L61.7697 31.1667L61.739 31.1922ZM60.9219 32.446L60.9611 32.4387L60.961 32.4382L60.9219 32.446ZM60.6158 31.9104L60.6435 31.8818L60.6432 31.8814L60.6158 31.9104ZM59.9538 31.4935L59.9702 31.4572L59.9538 31.4935ZM57.5762 30.8476L57.5806 30.808L57.5762 30.8476ZM56.7835 30.8692L56.7752 30.8303L56.7736 30.8307L56.7835 30.8692ZM56.257 31.1786L56.2273 31.1521L56.227 31.1525L56.257 31.1786ZM55.8978 32.4922L55.937 32.485L55.9369 32.4844L55.8978 32.4922ZM56.1939 33.0251L56.2217 32.9965L56.2213 32.9962L56.1939 33.0251ZM56.8631 33.4547L56.8467 33.491L56.8631 33.4547ZM60.0261 34.0663L60.0178 34.0273L60.0162 34.0277L60.0261 34.0663ZM60.5626 33.7596L60.5329 33.7331L60.5325 33.7335L60.5626 33.7596ZM62.0467 33.4626C61.795 34.383 61.3165 34.9637 60.6149 35.2158L60.6417 35.2907C61.3743 35.0276 61.8671 34.4215 62.1236 33.4835L62.0467 33.4626ZM60.6146 35.2159C59.9064 35.4762 59.0044 35.4602 57.9051 35.1616L57.8841 35.2384C58.9919 35.5394 59.9123 35.5589 60.642 35.2906L60.6146 35.2159ZM57.9051 35.1616L57.4738 35.0444L57.4527 35.1212L57.8841 35.2384L57.9051 35.1616ZM57.4738 35.0444C56.3745 34.7457 55.5891 34.3033 55.1115 33.7208L55.0498 33.7713C55.5419 34.3715 56.345 34.8203 57.4527 35.1212L57.4738 35.0444ZM55.1113 33.7205C54.6351 33.1485 54.5185 32.406 54.7702 31.4857L54.6933 31.4648C54.4367 32.4028 54.5527 33.1742 55.05 33.7715L55.1113 33.7205ZM54.7702 31.4857C55.0219 30.5653 55.5014 29.981 56.2051 29.7223L56.1777 29.6476C55.4435 29.9175 54.9499 30.5267 54.6933 31.4648L54.7702 31.4857ZM56.2048 29.7224C56.9112 29.4687 57.8124 29.488 58.9118 29.7867L58.9328 29.7098C57.8251 29.4089 56.9057 29.386 56.1779 29.6475L56.2048 29.7224ZM58.9118 29.7867L59.3432 29.9039L59.3642 29.827L58.9328 29.7098L58.9118 29.7867ZM59.3432 29.9039C60.4425 30.2026 61.2289 30.6417 61.7084 31.2177L61.7697 31.1667C61.2757 30.5733 60.4719 30.128 59.3642 29.827L59.3432 29.9039ZM61.7082 31.2175C62.1828 31.7963 62.2985 32.5422 62.0467 33.4626L62.1236 33.4835C62.3802 32.5454 62.2651 31.7708 61.7699 31.1669L61.7082 31.2175ZM60.9098 33.1537C60.9822 32.8889 61.0001 32.6502 60.9611 32.4387L60.8827 32.4533C60.9189 32.65 60.903 32.8762 60.8329 33.1328L60.9098 33.1537ZM60.961 32.4382C60.9198 32.2318 60.8132 32.0462 60.6435 31.8818L60.588 31.939C60.7477 32.0938 60.8452 32.2654 60.8828 32.4539L60.961 32.4382ZM60.6432 31.8814C60.4791 31.7263 60.2542 31.5851 59.9702 31.4572L59.9374 31.5299C60.2163 31.6555 60.4327 31.7922 60.5883 31.9393L60.6432 31.8814ZM59.9702 31.4572C59.6863 31.3294 59.3361 31.209 58.9201 31.096L58.8991 31.1729C59.3124 31.2852 59.6584 31.4042 59.9374 31.5299L59.9702 31.4572ZM58.9201 31.096L58.6693 31.0279L58.6483 31.1047L58.8991 31.1729L58.9201 31.096ZM58.6693 31.0279C58.2534 30.9149 57.8903 30.8414 57.5806 30.808L57.5719 30.8872C57.8762 30.9201 58.2349 30.9924 58.6483 31.1047L58.6693 31.0279ZM57.5806 30.808C57.2707 30.7745 57.002 30.7816 56.7752 30.8303L56.7919 30.9082C57.0079 30.8617 57.2676 30.8543 57.5719 30.8872L57.5806 30.808ZM56.7736 30.8307C56.5503 30.8885 56.3676 30.9954 56.2274 31.1521L56.2867 31.2052C56.4154 31.0615 56.5837 30.9621 56.7935 30.9078L56.7736 30.8307ZM56.227 31.1525C56.0857 31.3151 55.9796 31.5297 55.9072 31.7946L55.9841 31.8155C56.0543 31.5588 56.1557 31.3559 56.2871 31.2047L56.227 31.1525ZM55.9072 31.7946C55.8348 32.0593 55.8177 32.2949 55.8587 32.5001L55.9369 32.4844C55.899 32.2947 55.9139 32.0721 55.9841 31.8155L55.9072 31.7946ZM55.8586 32.4995C55.8978 32.7124 56.0009 32.8975 56.1665 33.0541L56.2213 32.9962C56.0672 32.8504 55.9729 32.6803 55.937 32.485L55.8586 32.4995ZM56.1661 33.0537C56.335 33.2175 56.5624 33.363 56.8467 33.491L56.8796 33.4184C56.6009 33.2929 56.3821 33.1521 56.2217 32.9965L56.1661 33.0537ZM56.8467 33.491C57.1307 33.6189 57.4809 33.7392 57.8968 33.8522L57.9178 33.7754C57.5045 33.6631 57.1586 33.544 56.8796 33.4184L56.8467 33.491ZM57.8968 33.8522L58.1476 33.9204L58.1686 33.8435L57.9178 33.7754L57.8968 33.8522ZM58.1476 33.9204C58.5636 34.0334 58.9266 34.1068 59.2364 34.1403L59.2451 34.0611C58.9407 34.0282 58.582 33.9558 58.1686 33.8435L58.1476 33.9204ZM59.2364 34.1403C59.5465 34.1737 59.8135 34.1625 60.0361 34.1048L60.0162 34.0277C59.8057 34.0822 59.549 34.0939 59.2451 34.0611L59.2364 34.1403ZM60.0344 34.1052C60.2635 34.056 60.4502 33.9497 60.5927 33.7857L60.5325 33.7335C60.4024 33.8833 60.2315 33.9814 60.0178 34.0273L60.0344 34.1052ZM60.5923 33.7861C60.7321 33.63 60.8374 33.4184 60.9098 33.1537L60.8329 33.1328C60.7627 33.3895 60.6621 33.5888 60.5329 33.7331L60.5923 33.7861ZM58.9276 41.4714L58.9142 41.4339L58.9139 41.434L58.9276 41.4714ZM53.3799 39.9642L53.4108 39.9389L53.4106 39.9387L53.3799 39.9642ZM54.4907 35.9031L54.4772 35.8656L54.4769 35.8657L54.4907 35.9031ZM60.0383 37.4103L60.0692 37.385L60.069 37.3848L60.0383 37.4103ZM59.2212 38.6641L59.2604 38.6569L59.2603 38.6563L59.2212 38.6641ZM58.915 38.1285L58.9428 38.0999L58.9425 38.0996L58.915 38.1285ZM58.2531 37.7117L58.2695 37.6753L58.2531 37.7117ZM55.8755 37.0657L55.8798 37.0261L55.8755 37.0657ZM55.0828 37.0874L55.0745 37.0484L55.0729 37.0488L55.0828 37.0874ZM54.5563 37.3968L54.5266 37.3702L54.5262 37.3707L54.5563 37.3968ZM54.1971 38.7103L54.2363 38.7031L54.2361 38.7025L54.1971 38.7103ZM54.4932 39.2432L54.521 39.2146L54.5206 39.2143L54.4932 39.2432ZM55.1624 39.6728L55.146 39.7091L55.1624 39.6728ZM58.3254 40.2844L58.3171 40.2454L58.3154 40.2458L58.3254 40.2844ZM58.8619 39.9777L58.8322 39.9512L58.8318 39.9516L58.8619 39.9777ZM60.346 39.6807C60.0943 40.6011 59.6158 41.1818 58.9142 41.4339L58.941 41.5089C59.6736 41.2457 60.1664 40.6396 60.4229 39.7016L60.346 39.6807ZM58.9139 41.434C58.2057 41.6943 57.3037 41.6783 56.2044 41.3797L56.1834 41.4565C57.2912 41.7575 58.2116 41.777 58.9413 41.5087L58.9139 41.434ZM56.2044 41.3797L55.7731 41.2625L55.752 41.3393L56.1834 41.4565L56.2044 41.3797ZM55.7731 41.2625C54.6738 40.9638 53.8884 40.5214 53.4108 39.9389L53.3491 39.9894C53.8412 40.5896 54.6443 41.0384 55.752 41.3393L55.7731 41.2625ZM53.4106 39.9387C52.9344 39.3666 52.8178 38.6242 53.0695 37.7038L52.9926 37.6829C52.736 38.6209 52.852 39.3923 53.3493 39.9897L53.4106 39.9387ZM53.0695 37.7038C53.3212 36.7834 53.8007 36.1992 54.5044 35.9405L54.4769 35.8657C53.7428 36.1356 53.2491 36.7448 52.9926 37.6829L53.0695 37.7038ZM54.5041 35.9406C55.2105 35.6868 56.1117 35.7061 57.2111 36.0048L57.2321 35.9279C56.1244 35.627 55.205 35.6042 54.4772 35.8656L54.5041 35.9406ZM57.2111 36.0048L57.6425 36.122L57.6635 36.0451L57.2321 35.9279L57.2111 36.0048ZM57.6425 36.122C58.7418 36.4207 59.5282 36.8598 60.0077 37.4358L60.069 37.3848C59.575 36.7914 58.7711 36.3461 57.6635 36.0451L57.6425 36.122ZM60.0075 37.4356C60.4821 38.0144 60.5977 38.7603 60.346 39.6807L60.4229 39.7016C60.6795 38.7636 60.5644 37.9889 60.0692 37.385L60.0075 37.4356ZM59.2091 39.3718C59.2815 39.107 59.2993 38.8684 59.2604 38.6569L59.182 38.6714C59.2182 38.8681 59.2023 39.0943 59.1321 39.3509L59.2091 39.3718ZM59.2603 38.6563C59.2191 38.4499 59.1125 38.2644 58.9428 38.0999L58.8873 38.1571C59.047 38.312 59.1445 38.4835 59.1821 38.672L59.2603 38.6563ZM58.9425 38.0996C58.7784 37.9444 58.5535 37.8032 58.2695 37.6753L58.2367 37.748C58.5156 37.8736 58.732 38.0103 58.8876 38.1575L58.9425 38.0996ZM58.2695 37.6753C57.9855 37.5475 57.6354 37.4271 57.2194 37.3141L57.1984 37.391C57.6117 37.5033 57.9577 37.6224 58.2367 37.748L58.2695 37.6753ZM57.2194 37.3141L56.9686 37.246L56.9476 37.3229L57.1984 37.391L57.2194 37.3141ZM56.9686 37.246C56.5526 37.133 56.1896 37.0596 55.8798 37.0261L55.8712 37.1053C56.1755 37.1382 56.5342 37.2106 56.9476 37.3229L56.9686 37.246ZM55.8798 37.0261C55.57 36.9927 55.3012 36.9997 55.0745 37.0484L55.0912 37.1263C55.3072 37.0799 55.5669 37.0725 55.8712 37.1053L55.8798 37.0261ZM55.0729 37.0488C54.8496 37.1066 54.6669 37.2135 54.5266 37.3702L54.586 37.4233C54.7147 37.2796 54.883 37.1802 55.0928 37.1259L55.0729 37.0488ZM54.5262 37.3707C54.385 37.5332 54.2789 37.7479 54.2065 38.0127L54.2834 38.0336C54.3535 37.777 54.455 37.574 54.5864 37.4228L54.5262 37.3707ZM54.2065 38.0127C54.134 38.2774 54.117 38.513 54.158 38.7182L54.2361 38.7025C54.1983 38.5128 54.2132 38.2903 54.2834 38.0336L54.2065 38.0127ZM54.1578 38.7176C54.197 38.9305 54.3002 39.1156 54.4658 39.2722L54.5206 39.2143C54.3665 39.0686 54.2722 38.8984 54.2363 38.7031L54.1578 38.7176ZM54.4654 39.2718C54.6343 39.4356 54.8617 39.5811 55.146 39.7091L55.1789 39.6365C54.9002 39.511 54.6814 39.3702 54.521 39.2146L54.4654 39.2718ZM55.146 39.7091C55.43 39.837 55.7802 39.9573 56.1961 40.0704L56.2171 39.9935C55.8038 39.8812 55.4578 39.7621 55.1789 39.6365L55.146 39.7091ZM56.1961 40.0704L56.4469 40.1385L56.4679 40.0616L56.2171 39.9935L56.1961 40.0704ZM56.4469 40.1385C56.8629 40.2515 57.2259 40.3249 57.5357 40.3584L57.5443 40.2792C57.24 40.2463 56.8813 40.1739 56.4679 40.0616L56.4469 40.1385ZM57.5357 40.3584C57.8458 40.3919 58.1128 40.3806 58.3353 40.3229L58.3154 40.2458C58.105 40.3003 57.8483 40.312 57.5443 40.2792L57.5357 40.3584ZM58.3337 40.3233C58.5627 40.2741 58.7495 40.1678 58.892 40.0038L58.8318 39.9516C58.7017 40.1014 58.5308 40.1995 58.3171 40.2454L58.3337 40.3233ZM58.8916 40.0042C59.0314 39.8481 59.1366 39.6365 59.2091 39.3718L59.1321 39.3509C59.0619 39.6076 58.9614 39.8069 58.8322 39.9512L58.8916 40.0042ZM57.2269 47.6895L57.2134 47.652L57.2132 47.6521L57.2269 47.6895ZM51.6792 46.1823L51.7101 46.157L51.7099 46.1568L51.6792 46.1823ZM52.7899 42.1212L52.7765 42.0837L52.7762 42.0838L52.7899 42.1212ZM58.3376 43.6284L58.3685 43.6032L58.3683 43.6029L58.3376 43.6284ZM57.5205 44.8822L57.5597 44.875L57.5596 44.8744L57.5205 44.8822ZM57.2143 44.3466L57.2421 44.318L57.2418 44.3177L57.2143 44.3466ZM56.5524 43.9298L56.5688 43.8935L56.5524 43.9298ZM54.1748 43.2838L54.1791 43.2442L54.1748 43.2838ZM53.3821 43.3055L53.3738 43.2665L53.3722 43.2669L53.3821 43.3055ZM52.8556 43.6149L52.8259 43.5883L52.8255 43.5888L52.8556 43.6149ZM52.4963 44.9284L52.5356 44.9212L52.5354 44.9206L52.4963 44.9284ZM52.7925 45.4613L52.8202 45.4327L52.8199 45.4324L52.7925 45.4613ZM53.4617 45.8909L53.4453 45.9273L53.4617 45.8909ZM56.6247 46.5025L56.6163 46.4635L56.6147 46.4639L56.6247 46.5025ZM57.1612 46.1958L57.1315 46.1693L57.1311 46.1697L57.1612 46.1958ZM58.6453 45.8988C58.3936 46.8192 57.9151 47.4 57.2134 47.652L57.2403 47.727C57.9729 47.4638 58.4657 46.8577 58.7222 45.9197L58.6453 45.8988ZM57.2132 47.6521C56.505 47.9125 55.603 47.8964 54.5037 47.5978L54.4827 47.6747C55.5905 47.9756 56.5109 47.9951 57.2406 47.7269L57.2132 47.6521ZM54.5037 47.5978L54.0723 47.4806L54.0513 47.5575L54.4827 47.6747L54.5037 47.5978ZM54.0723 47.4806C52.9731 47.1819 52.1877 46.7395 51.7101 46.157L51.6483 46.2075C52.1405 46.8077 52.9435 47.2565 54.0513 47.5575L54.0723 47.4806ZM51.7099 46.1568C51.2336 45.5847 51.117 44.8423 51.3688 43.9219L51.2919 43.901C51.0353 44.839 51.1513 45.6105 51.6485 46.2078L51.7099 46.1568ZM51.3688 43.9219C51.6205 43.0015 52.1 42.4173 52.8037 42.1586L52.7762 42.0838C52.0421 42.3537 51.5484 42.963 51.2919 43.901L51.3688 43.9219ZM52.8034 42.1587C53.5098 41.9049 54.411 41.9242 55.5104 42.2229L55.5314 42.1461C54.4237 41.8451 53.5043 41.8223 52.7765 42.0837L52.8034 42.1587ZM55.5104 42.2229L55.9417 42.3401L55.9628 42.2633L55.5314 42.1461L55.5104 42.2229ZM55.9417 42.3401C57.0411 42.6388 57.8275 43.0779 58.307 43.6539L58.3683 43.6029C57.8743 43.0095 57.0704 42.5642 55.9628 42.2633L55.9417 42.3401ZM58.3068 43.6537C58.7814 44.2325 58.897 44.9785 58.6453 45.8988L58.7222 45.9197C58.9788 44.9817 58.8637 44.2071 58.3685 43.6032L58.3068 43.6537ZM57.5083 45.5899C57.5808 45.3251 57.5986 45.0865 57.5597 44.875L57.4813 44.8895C57.5175 45.0862 57.5016 45.3124 57.4314 45.569L57.5083 45.5899ZM57.5596 44.8744C57.5184 44.668 57.4118 44.4825 57.2421 44.318L57.1865 44.3752C57.3463 44.5301 57.4438 44.7016 57.4814 44.8901L57.5596 44.8744ZM57.2418 44.3177C57.0777 44.1625 56.8528 44.0214 56.5688 43.8935L56.5359 43.9661C56.8149 44.0917 57.0313 44.2284 57.1869 44.3756L57.2418 44.3177ZM56.5688 43.8935C56.2848 43.7656 55.9346 43.6453 55.5187 43.5322L55.4977 43.6091C55.911 43.7214 56.257 43.8405 56.5359 43.9661L56.5688 43.8935ZM55.5187 43.5322L55.2679 43.4641L55.2469 43.541L55.4977 43.6091L55.5187 43.5322ZM55.2679 43.4641C54.8519 43.3511 54.4889 43.2777 54.1791 43.2442L54.1704 43.3234C54.4748 43.3563 54.8335 43.4287 55.2469 43.541L55.2679 43.4641ZM54.1791 43.2442C53.8693 43.2108 53.6005 43.2178 53.3738 43.2665L53.3904 43.3444C53.6065 43.298 53.8662 43.2906 54.1704 43.3234L54.1791 43.2442ZM53.3722 43.2669C53.1489 43.3247 52.9662 43.4317 52.8259 43.5883L52.8853 43.6414C53.014 43.4977 53.1823 43.3984 53.3921 43.344L53.3722 43.2669ZM52.8255 43.5888C52.6843 43.7513 52.5782 43.966 52.5057 44.2308L52.5826 44.2517C52.6528 43.9951 52.7543 43.7922 52.8857 43.641L52.8255 43.5888ZM52.5057 44.2308C52.4333 44.4955 52.4163 44.7311 52.4572 44.9363L52.5354 44.9206C52.4976 44.7309 52.5124 44.5084 52.5826 44.2517L52.5057 44.2308ZM52.4571 44.9357C52.4963 45.1486 52.5995 45.3337 52.765 45.4903L52.8199 45.4324C52.6658 45.2867 52.5715 45.1165 52.5355 44.9212L52.4571 44.9357ZM52.7647 45.49C52.9336 45.6537 53.161 45.7992 53.4453 45.9273L53.4781 45.8546C53.1995 45.7292 52.9807 45.5883 52.8202 45.4327L52.7647 45.49ZM53.4453 45.9273C53.7293 46.0551 54.0794 46.1755 54.4954 46.2885L54.5164 46.2116C54.1031 46.0993 53.7571 45.9802 53.4781 45.8546L53.4453 45.9273ZM54.4954 46.2885L54.7462 46.3566L54.7672 46.2797L54.5164 46.2116L54.4954 46.2885ZM54.7462 46.3566C55.1622 46.4696 55.5252 46.543 55.835 46.5765L55.8436 46.4973C55.5393 46.4644 55.1806 46.392 54.7672 46.2797L54.7462 46.3566ZM55.835 46.5765C56.1451 46.61 56.412 46.5987 56.6346 46.5411L56.6147 46.4639C56.4043 46.5185 56.1476 46.5301 55.8436 46.4973L55.835 46.5765ZM56.633 46.5414C56.862 46.4922 57.0488 46.3859 57.1913 46.2219L57.1311 46.1697C57.001 46.3195 56.8301 46.4176 56.6163 46.4636L56.633 46.5414ZM57.1909 46.2224C57.3307 46.0663 57.4359 45.8547 57.5083 45.5899L57.4314 45.569C57.3612 45.8257 57.2607 46.025 57.1315 46.1693L57.1909 46.2224ZM55.5262 53.9076L55.5127 53.8701L55.5125 53.8702L55.5262 53.9076ZM49.9785 52.4004L50.0093 52.3751L50.0092 52.3749L49.9785 52.4004ZM51.0892 48.3393L51.0758 48.3018L51.0755 48.3019L51.0892 48.3393ZM56.6369 49.8465L56.6678 49.8213L56.6676 49.821L56.6369 49.8465ZM55.8198 51.1004L55.859 51.0931L55.8589 51.0925L55.8198 51.1004ZM55.5136 50.5647L55.5414 50.5361L55.541 50.5358L55.5136 50.5647ZM54.8516 50.1479L54.8681 50.1116L54.8516 50.1479ZM52.4741 49.5019L52.4784 49.4623L52.4741 49.5019ZM51.6814 49.5236L51.6731 49.4846L51.6715 49.485L51.6814 49.5236ZM51.1549 49.833L51.1252 49.8065L51.1248 49.8069L51.1549 49.833ZM50.7956 51.1466L50.8348 51.1393L50.8347 51.1387L50.7956 51.1466ZM51.0917 51.6795L51.1195 51.6509L51.1192 51.6505L51.0917 51.6795ZM51.761 52.1091L51.7446 52.1454L51.761 52.1091ZM54.924 52.7206L54.9156 52.6816L54.914 52.6821L54.924 52.7206ZM55.4605 52.4139L55.4308 52.3874L55.4304 52.3879L55.4605 52.4139ZM56.9446 52.1169C56.6929 53.0373 56.2144 53.6181 55.5127 53.8701L55.5396 53.9451C56.2722 53.6819 56.7649 53.0758 57.0215 52.1378L56.9446 52.1169ZM55.5125 53.8702C54.8043 54.1306 53.9023 54.1146 52.803 53.8159L52.782 53.8928C53.8897 54.1937 54.8102 54.2132 55.5399 53.945L55.5125 53.8702ZM52.803 53.8159L52.3716 53.6987L52.3506 53.7756L52.782 53.8928L52.803 53.8159ZM52.3716 53.6987C51.2724 53.4001 50.487 52.9576 50.0093 52.3751L49.9476 52.4257C50.4398 53.0259 51.2428 53.4746 52.3506 53.7756L52.3716 53.6987ZM50.0092 52.3749C49.5329 51.8028 49.4163 51.0604 49.6681 50.14L49.5912 50.1191C49.3346 51.0571 49.4506 51.8286 49.9478 52.4259L50.0092 52.3749ZM49.6681 50.14C49.9198 49.2197 50.3993 48.6354 51.1029 48.3767L51.0755 48.3019C50.3413 48.5718 49.8477 49.1811 49.5912 50.1191L49.6681 50.14ZM51.1027 48.3768C51.8091 48.123 52.7103 48.1424 53.8096 48.441L53.8307 48.3642C52.723 48.0632 51.8036 48.0404 51.0758 48.3018L51.1027 48.3768ZM53.8096 48.441L54.241 48.5582L54.262 48.4814L53.8307 48.3642L53.8096 48.441ZM54.241 48.5582C55.3404 48.8569 56.1268 49.2961 56.6062 49.872L56.6676 49.821C56.1736 49.2277 55.3697 48.7823 54.262 48.4814L54.241 48.5582ZM56.6061 49.8718C57.0807 50.4506 57.1963 51.1966 56.9446 52.1169L57.0215 52.1378C57.2781 51.1998 57.1629 50.4252 56.6678 49.8213L56.6061 49.8718ZM55.8076 51.808C55.8801 51.5432 55.8979 51.3046 55.859 51.0931L55.7806 51.1076C55.8168 51.3044 55.8009 51.5305 55.7307 51.7871L55.8076 51.808ZM55.8589 51.0925C55.8177 50.8861 55.711 50.7006 55.5414 50.5361L55.4858 50.5933C55.6456 50.7482 55.7431 50.9198 55.7807 51.1082L55.8589 51.0925ZM55.541 50.5358C55.377 50.3806 55.1521 50.2395 54.8681 50.1116L54.8352 50.1842C55.1141 50.3098 55.3306 50.4465 55.4862 50.5937L55.541 50.5358ZM54.8681 50.1116C54.5841 49.9837 54.2339 49.8634 53.818 49.7504L53.7969 49.8272C54.2103 49.9395 54.5562 50.0586 54.8352 50.1842L54.8681 50.1116ZM53.818 49.7504L53.5672 49.6822L53.5461 49.7591L53.7969 49.8272L53.818 49.7504ZM53.5672 49.6822C53.1512 49.5692 52.7882 49.4958 52.4784 49.4623L52.4697 49.5415C52.7741 49.5744 53.1328 49.6468 53.5461 49.7591L53.5672 49.6822ZM52.4784 49.4623C52.1685 49.4289 51.8998 49.4359 51.6731 49.4846L51.6897 49.5625C51.9057 49.5161 52.1655 49.5087 52.4697 49.5415L52.4784 49.4623ZM51.6715 49.485C51.4482 49.5429 51.2655 49.6498 51.1252 49.8065L51.1846 49.8595C51.3133 49.7158 51.4816 49.6165 51.6914 49.5621L51.6715 49.485ZM51.1248 49.8069C50.9836 49.9694 50.8775 50.1841 50.805 50.4489L50.8819 50.4698C50.9521 50.2132 51.0536 50.0103 51.185 49.8591L51.1248 49.8069ZM50.805 50.4489C50.7326 50.7136 50.7156 50.9492 50.7565 51.1544L50.8347 51.1387C50.7969 50.9491 50.8117 50.7265 50.8819 50.4698L50.805 50.4489ZM50.7564 51.1538C50.7956 51.3668 50.8987 51.5518 51.0643 51.7084L51.1192 51.6505C50.9651 51.5048 50.8708 51.3346 50.8348 51.1393L50.7564 51.1538ZM51.064 51.7081C51.2329 51.8718 51.4603 52.0173 51.7446 52.1454L51.7774 52.0727C51.4988 51.9473 51.28 51.8064 51.1195 51.6509L51.064 51.7081ZM51.7446 52.1454C52.0285 52.2732 52.3787 52.3936 52.7947 52.5066L52.8157 52.4297C52.4024 52.3174 52.0564 52.1984 51.7774 52.0727L51.7446 52.1454ZM52.7947 52.5066L53.0455 52.5747L53.0665 52.4979L52.8157 52.4297L52.7947 52.5066ZM53.0455 52.5747C53.4614 52.6877 53.8245 52.7612 54.1342 52.7946L54.1429 52.7154C53.8386 52.6825 53.4799 52.6102 53.0665 52.4979L53.0455 52.5747ZM54.1342 52.7946C54.4444 52.8281 54.7113 52.8168 54.9339 52.7592L54.914 52.6821C54.7036 52.7366 54.4469 52.7482 54.1429 52.7154L54.1342 52.7946ZM54.9323 52.7596C55.1613 52.7103 55.3481 52.604 55.4906 52.44L55.4304 52.3879C55.3003 52.5376 55.1294 52.6357 54.9156 52.6817L54.9323 52.7596ZM55.4902 52.4405C55.63 52.2844 55.7352 52.0728 55.8076 51.808L55.7307 51.7871C55.6605 52.0438 55.56 52.2431 55.4308 52.3874L55.4902 52.4405Z" fill="#7DB092"/>
<path d="M84.8476 62.2884C84.9756 61.7784 85.4873 61.4915 85.999 61.619L88.0779 62.1928C88.5896 62.3203 88.8774 62.8303 88.7495 63.3403C88.6216 63.8503 88.1098 64.1372 87.5981 64.0097L85.5193 63.4359C85.0076 63.3084 84.7197 62.7984 84.8476 62.2884Z" fill="#9FD9BA"/>
<path d="M77.3324 60.2484C77.4604 59.7384 77.9721 59.4515 78.4838 59.579L82.9933 60.7903C83.505 60.9178 83.7929 61.4278 83.665 61.9378C83.537 62.4478 83.0253 62.7347 82.5136 62.6072L78.0041 61.3959C77.4924 61.2684 77.1725 60.7584 77.3324 60.2484Z" fill="#9FD9BA"/>
<path d="M65.2104 56.9652C65.3383 56.4552 65.85 56.1683 66.3617 56.2958L75.7326 58.8458C76.2443 58.9733 76.5321 59.4833 76.4042 59.9933C76.2763 60.5034 75.7646 60.7902 75.2528 60.6627L65.882 58.1127C65.3703 57.9852 65.0505 57.4752 65.2104 56.9652Z" fill="#9FD9BA"/>
<path d="M105.1 69.3834V124.496C105.1 128.385 101.934 131.541 98.0317 131.541H24.5681C20.6663 131.541 17.5 128.385 17.5 124.496V69.3834C17.5 65.4945 20.6663 62.3389 24.5681 62.3389H97.9997C101.934 62.3389 105.1 65.4945 105.1 69.3834Z" fill="#F0D380"/>
<path d="M92.6584 124.21H89.1724C88.8525 124.21 88.5967 123.955 88.5967 123.636C88.5967 123.317 88.8525 123.062 89.1724 123.062H92.6584C92.9783 123.062 93.2341 123.317 93.2341 123.636C93.2341 123.955 92.9783 124.21 92.6584 124.21ZM85.7183 124.21H82.2322C81.9123 124.21 81.6565 123.955 81.6565 123.636C81.6565 123.317 81.9123 123.062 82.2322 123.062H85.7183C86.0381 123.062 86.2939 123.317 86.2939 123.636C86.2939 123.955 86.0381 124.21 85.7183 124.21ZM78.7461 124.21H75.26C74.9402 124.21 74.6843 123.955 74.6843 123.636C74.6843 123.317 74.9402 123.062 75.26 123.062H78.7461C79.0659 123.062 79.3218 123.317 79.3218 123.636C79.3538 123.955 79.0659 124.21 78.7461 124.21ZM71.8059 124.21H68.3518C68.032 124.21 67.7761 123.955 67.7761 123.636C67.7761 123.317 68.032 123.062 68.3518 123.062H71.8379C72.1577 123.062 72.4136 123.317 72.4136 123.636C72.3816 123.955 72.1257 124.21 71.8059 124.21ZM64.8657 124.21H61.3796C61.0598 124.21 60.804 123.955 60.804 123.636C60.804 123.317 61.0598 123.062 61.3796 123.062H64.8657C65.1855 123.062 65.4414 123.317 65.4414 123.636C65.4414 123.955 65.1855 124.21 64.8657 124.21ZM57.9255 124.21H54.4395C54.1196 124.21 53.8638 123.955 53.8638 123.636C53.8638 123.317 54.1196 123.062 54.4395 123.062H57.9255C58.2454 123.062 58.5012 123.317 58.5012 123.636C58.5012 123.955 58.2454 124.21 57.9255 124.21ZM50.9853 124.21H47.4993C47.1794 124.21 46.9236 123.955 46.9236 123.636C46.9236 123.317 47.1794 123.062 47.4993 123.062H50.9853C51.3052 123.062 51.561 123.317 51.561 123.636C51.561 123.955 51.3052 124.21 50.9853 124.21ZM44.0452 124.21H40.5591C40.2393 124.21 39.9834 123.955 39.9834 123.636C39.9834 123.317 40.2393 123.062 40.5591 123.062H44.0452C44.365 123.062 44.6208 123.317 44.6208 123.636C44.6208 123.955 44.365 124.21 44.0452 124.21ZM37.073 124.21H33.6189C33.2991 124.21 33.0432 123.955 33.0432 123.636C33.0432 123.317 33.2991 123.062 33.6189 123.062H37.105C37.4248 123.062 37.6807 123.317 37.6807 123.636C37.6487 123.955 37.3928 124.21 37.073 124.21ZM30.1328 124.21H29.781C28.5977 124.21 27.4463 123.763 26.5508 122.998C26.3269 122.775 26.2949 122.425 26.4868 122.201C26.7107 121.978 27.0625 121.946 27.2864 122.138C27.958 122.743 28.8535 123.062 29.749 123.062H30.1008C30.4207 123.062 30.6765 123.317 30.6765 123.636C30.7085 123.955 30.4526 124.21 30.1328 124.21ZM95.7927 122.998C95.6328 122.998 95.5049 122.935 95.3769 122.807C95.1531 122.584 95.1531 122.201 95.3769 122.01C96.1125 121.309 96.5283 120.353 96.5283 119.333C96.5283 119.014 96.7842 118.759 97.104 118.759C97.4238 118.759 97.6797 119.014 97.6797 119.333V119.365C97.6797 120.703 97.136 121.946 96.1765 122.871C96.0806 122.966 95.9526 122.998 95.7927 122.998ZM25.4634 120.098C25.1436 120.098 24.8877 119.843 24.8877 119.556C24.8877 119.492 24.8877 119.396 24.8877 119.333V116.081C24.8877 115.763 25.1436 115.508 25.4634 115.508C25.7832 115.508 26.0391 115.763 26.0391 116.081V119.333C26.0391 119.396 26.0391 119.46 26.0391 119.492C26.071 119.811 25.8152 120.098 25.4634 120.098C25.4954 120.098 25.4954 120.098 25.4634 120.098ZM97.136 116.432C96.8162 116.432 96.5603 116.177 96.5603 115.858V112.384C96.5603 112.065 96.8162 111.81 97.136 111.81C97.4558 111.81 97.7117 112.065 97.7117 112.384V115.858C97.7117 116.177 97.4558 116.432 97.136 116.432ZM25.4634 113.181C25.1436 113.181 24.8877 112.926 24.8877 112.607V109.132C24.8877 108.814 25.1436 108.559 25.4634 108.559C25.7832 108.559 26.0391 108.814 26.0391 109.132V112.607C26.0391 112.926 25.7832 113.181 25.4634 113.181ZM97.136 109.515C96.8162 109.515 96.5603 109.26 96.5603 108.941V105.467C96.5603 105.148 96.8162 104.893 97.136 104.893C97.4558 104.893 97.7117 105.148 97.7117 105.467V108.941C97.7117 109.26 97.4558 109.515 97.136 109.515ZM25.4634 106.264C25.1436 106.264 24.8877 106.009 24.8877 105.69V102.215C24.8877 101.897 25.1436 101.642 25.4634 101.642C25.7832 101.642 26.0391 101.897 26.0391 102.215V105.69C26.0391 106.009 25.7832 106.264 25.4634 106.264ZM97.136 102.598C96.8162 102.598 96.5603 102.343 96.5603 102.024V98.5498C96.5603 98.231 96.8162 97.976 97.136 97.976C97.4558 97.976 97.7117 98.231 97.7117 98.5498V102.024C97.7117 102.343 97.4558 102.598 97.136 102.598ZM25.4634 99.3467C25.1436 99.3467 24.8877 99.0917 24.8877 98.7729V95.2985C24.8877 94.9797 25.1436 94.7247 25.4634 94.7247C25.7832 94.7247 26.0391 94.9797 26.0391 95.2985V98.7729C26.0391 99.0917 25.7832 99.3467 25.4634 99.3467ZM97.136 95.6491C96.8162 95.6491 96.5603 95.3941 96.5603 95.0754V91.6328C96.5603 91.314 96.8162 91.059 97.136 91.059C97.4558 91.059 97.7117 91.314 97.7117 91.6328V95.1072C97.7117 95.3941 97.4558 95.6491 97.136 95.6491ZM25.4634 92.4297C25.1436 92.4297 24.8877 92.1747 24.8877 91.8559V88.3815C24.8877 88.0627 25.1436 87.8077 25.4634 87.8077C25.7832 87.8077 26.0391 88.0627 26.0391 88.3815V91.8559C26.0391 92.1747 25.7832 92.4297 25.4634 92.4297ZM97.136 88.7321C96.8162 88.7321 96.5603 88.4771 96.5603 88.1584V84.6839C96.5603 84.3652 96.8162 84.1102 97.136 84.1102C97.4558 84.1102 97.7117 84.3652 97.7117 84.6839V88.1584C97.7117 88.4771 97.4558 88.7321 97.136 88.7321ZM25.4634 85.4808C25.1436 85.4808 24.8877 85.2258 24.8877 84.9071V81.4326C24.8877 81.1139 25.1436 80.8589 25.4634 80.8589C25.7832 80.8589 26.0391 81.1139 26.0391 81.4326V84.9071C26.0391 85.2258 25.7832 85.4808 25.4634 85.4808ZM97.136 81.8151C96.8162 81.8151 96.5603 81.5601 96.5603 81.2414V77.7669C96.5603 77.4482 96.8162 77.1932 97.136 77.1932C97.4558 77.1932 97.7117 77.4482 97.7117 77.7669V81.2414C97.7117 81.5601 97.4558 81.8151 97.136 81.8151ZM25.4634 78.5638C25.1436 78.5638 24.8877 78.3088 24.8877 77.9901V74.5156C24.8877 74.1969 25.1436 73.9419 25.4634 73.9419C25.7832 73.9419 26.0391 74.1969 26.0391 74.5156V77.9901C26.0391 78.3088 25.7832 78.5638 25.4634 78.5638ZM97.136 74.8981C96.8162 74.8981 96.5603 74.6431 96.5603 74.3563C96.4963 73.3362 96.0486 72.4118 95.281 71.7425C95.0571 71.5193 95.0251 71.1687 95.217 70.9456C95.4409 70.7224 95.7927 70.6906 96.0166 70.8818C97.04 71.7743 97.6157 72.9856 97.6797 74.3244C97.7117 74.6113 97.4558 74.8663 97.136 74.8981ZM26.7747 71.9975C26.6147 71.9975 26.4868 71.9337 26.3589 71.8381C26.135 71.615 26.135 71.2324 26.3589 71.0412C27.2864 70.1487 28.5017 69.6705 29.781 69.6705H29.9409C30.2607 69.6705 30.5166 69.9255 30.5166 70.2443C30.5166 70.5631 30.2607 70.8181 29.9409 70.8181H29.781C28.7896 70.8181 27.8621 71.2006 27.1904 71.87C27.0625 71.9656 26.9346 71.9975 26.7747 71.9975ZM92.4346 70.7862H88.9485C88.6287 70.7862 88.3728 70.5312 88.3728 70.2124C88.3728 69.8937 88.6287 69.6387 88.9485 69.6387H92.4346C92.7544 69.6387 93.0102 69.8937 93.0102 70.2124C93.0102 70.5312 92.7544 70.7862 92.4346 70.7862ZM85.4944 70.7862H82.0083C81.6885 70.7862 81.4326 70.5312 81.4326 70.2124C81.4326 69.8937 81.6885 69.6387 82.0083 69.6387H85.4944C85.8142 69.6387 86.0701 69.8937 86.0701 70.2124C86.0701 70.5312 85.8142 70.7862 85.4944 70.7862ZM78.5542 70.7862H75.0681C74.7483 70.7862 74.4924 70.5312 74.4924 70.2124C74.4924 69.8937 74.7483 69.6387 75.0681 69.6387H78.5542C78.874 69.6387 79.1299 69.8937 79.1299 70.2124C79.1299 70.5312 78.874 70.7862 78.5542 70.7862ZM71.614 70.7862H68.1279C67.8081 70.7862 67.5522 70.5312 67.5522 70.2124C67.5522 69.8937 67.8081 69.6387 68.1279 69.6387H71.614C71.9338 69.6387 72.1897 69.8937 72.1897 70.2124C72.1897 70.5312 71.9338 70.7862 71.614 70.7862ZM64.6738 70.7862H61.1877C60.8679 70.7862 60.6121 70.5312 60.6121 70.2124C60.6121 69.8937 60.8679 69.6387 61.1877 69.6387H64.6738C64.9936 69.6387 65.2495 69.8937 65.2495 70.2124C65.2495 70.5312 64.9936 70.7862 64.6738 70.7862ZM57.7017 70.7862H54.2156C53.8958 70.7862 53.6399 70.5312 53.6399 70.2124C53.6399 69.8937 53.8958 69.6387 54.2156 69.6387H57.7017C58.0215 69.6387 58.2773 69.8937 58.2773 70.2124C58.2773 70.5312 58.0215 70.7862 57.7017 70.7862ZM50.7615 70.7862H47.3074C46.9875 70.7862 46.7317 70.5312 46.7317 70.2124C46.7317 69.8937 46.9875 69.6387 47.3074 69.6387H50.7615C51.0813 69.6387 51.3372 69.8937 51.3372 70.2124C51.3372 70.5312 51.0813 70.7862 50.7615 70.7862ZM43.8213 70.7862H40.3672C40.0474 70.7862 39.7915 70.5312 39.7915 70.2124C39.7915 69.8937 40.0474 69.6387 40.3672 69.6387H43.8533C44.1731 69.6387 44.429 69.8937 44.429 70.2124C44.429 70.5312 44.1411 70.7862 43.8213 70.7862ZM36.8811 70.7862H33.395C33.0752 70.7862 32.8193 70.5312 32.8193 70.2124C32.8193 69.8937 33.0752 69.6387 33.395 69.6387H36.8811C37.2009 69.6387 37.4568 69.8937 37.4568 70.2124C37.4568 70.5312 37.2009 70.7862 36.8811 70.7862Z" fill="#EAC56A"/>
<path d="M131.869 142.379C131.869 143.558 131.901 144.77 131.901 145.949C131.901 146.873 130.75 147.798 128.351 148.563C123.202 150.22 114.279 150.475 108.458 149.168C105.323 148.467 103.724 147.415 103.724 146.363L103.692 142.793C103.692 143.845 105.291 144.897 108.426 145.598C114.247 146.937 123.138 146.682 128.319 144.993C130.718 144.228 131.901 143.271 131.869 142.379Z" fill="#FFBE55"/>
<path d="M131.869 142.379C131.869 143.558 131.901 144.77 131.901 145.949C131.901 146.873 130.75 147.798 128.351 148.563C123.202 150.22 114.279 150.475 108.458 149.168C105.323 148.467 103.724 147.415 103.724 146.363L103.692 142.793C103.692 143.845 105.291 144.897 108.426 145.598C114.247 146.937 123.138 146.682 128.319 144.993C130.718 144.228 131.901 143.271 131.869 142.379Z" fill="#EDB648"/>
<path d="M127.136 139.574C132.957 140.913 133.501 143.335 128.319 144.993C123.17 146.651 114.247 146.906 108.426 145.599C102.606 144.26 102.062 141.837 107.243 140.18C112.424 138.522 121.315 138.235 127.136 139.574ZM110.057 145.057C114.855 146.172 122.243 145.949 126.528 144.547C130.814 143.176 130.366 141.168 125.537 140.052C120.708 138.937 113.352 139.16 109.066 140.562C104.812 141.965 105.228 143.973 110.057 145.057Z" fill="#FFBE55"/>
<path d="M127.136 139.574C132.957 140.913 133.501 143.335 128.319 144.993C123.17 146.651 114.247 146.906 108.426 145.599C102.606 144.26 102.062 141.837 107.243 140.18C112.424 138.522 121.315 138.235 127.136 139.574ZM110.057 145.057C114.855 146.172 122.243 145.949 126.528 144.547C130.814 143.176 130.366 141.168 125.537 140.052C120.708 138.937 113.352 139.16 109.066 140.562C104.812 141.965 105.228 143.973 110.057 145.057Z" fill="#FFE299"/>
<path d="M125.537 140.084C130.335 141.2 130.782 143.208 126.529 144.579C122.243 145.949 114.887 146.172 110.058 145.089C105.26 143.973 104.813 141.965 109.066 140.594C113.352 139.223 120.708 138.968 125.537 140.084Z" fill="#F2CB6B"/>
<path d="M109.065 141.041C113.351 139.67 120.707 139.447 125.536 140.531C127.935 141.072 129.246 141.837 129.438 142.666C129.694 141.71 128.383 140.754 125.536 140.084C120.739 138.969 113.351 139.192 109.065 140.594C106.922 141.296 105.963 142.124 106.155 142.953C106.347 142.252 107.306 141.582 109.065 141.041Z" fill="#EDB648"/>
<path d="M130.302 137.948C130.302 139.128 130.334 140.339 130.334 141.518C130.334 142.443 129.183 143.367 126.784 144.132C121.635 145.79 112.712 146.045 106.891 144.738C103.757 144.036 102.158 142.985 102.158 141.933L102.126 138.363C102.126 139.415 103.725 140.466 106.859 141.168C112.68 142.506 121.571 142.251 126.752 140.562C129.151 139.797 130.334 138.873 130.302 137.948Z" fill="#FFBE55"/>
<path d="M130.302 137.948C130.302 139.128 130.334 140.339 130.334 141.518C130.334 142.443 129.183 143.367 126.784 144.132C121.635 145.79 112.712 146.045 106.891 144.738C103.757 144.036 102.158 142.985 102.158 141.933L102.126 138.363C102.126 139.415 103.725 140.466 106.859 141.168C112.68 142.506 121.571 142.251 126.752 140.562C129.151 139.797 130.334 138.873 130.302 137.948Z" fill="#EDB648"/>
<path d="M125.569 135.143C131.39 136.482 131.933 138.905 126.752 140.562C121.603 142.22 112.68 142.475 106.859 141.168C101.038 139.829 100.495 137.407 105.676 135.749C110.857 134.092 119.748 133.805 125.569 135.143ZM108.49 140.658C113.287 141.774 120.675 141.55 124.961 140.148C129.247 138.777 128.799 136.769 123.97 135.653C119.172 134.538 111.784 134.761 107.499 136.163C103.245 137.534 103.661 139.542 108.49 140.658Z" fill="#FFBE55"/>
<path d="M125.569 135.143C131.39 136.482 131.933 138.905 126.752 140.562C121.603 142.22 112.68 142.475 106.859 141.168C101.038 139.829 100.495 137.407 105.676 135.749C110.857 134.092 119.748 133.805 125.569 135.143ZM108.49 140.658C113.287 141.774 120.675 141.55 124.961 140.148C129.247 138.777 128.799 136.769 123.97 135.653C119.172 134.538 111.784 134.761 107.499 136.163C103.245 137.534 103.661 139.542 108.49 140.658Z" fill="#FFE299"/>
<path d="M123.969 135.654C128.766 136.769 129.214 138.777 124.96 140.148C120.675 141.519 113.319 141.742 108.489 140.658C103.692 139.542 103.244 137.534 107.498 136.164C111.784 134.793 119.14 134.57 123.969 135.654Z" fill="#F2CB6B"/>
<path d="M107.499 136.61C111.784 135.239 119.14 135.016 123.97 136.1C126.368 136.642 127.68 137.407 127.872 138.236C128.127 137.279 126.816 136.323 123.97 135.654C119.172 134.538 111.784 134.761 107.499 136.164C105.356 136.865 104.397 137.694 104.588 138.522C104.78 137.821 105.74 137.184 107.499 136.61Z" fill="#EDB648"/>
<path d="M133.468 133.74C133.468 134.92 133.5 136.131 133.5 137.31C133.5 138.235 132.348 139.159 129.949 139.924C124.8 141.582 115.877 141.837 110.056 140.53C106.922 139.828 105.323 138.777 105.323 137.725L105.291 134.155C105.291 135.207 106.89 136.258 110.024 136.96C115.845 138.298 124.736 138.043 129.917 136.354C132.316 135.589 133.5 134.665 133.468 133.74Z" fill="#FFBE55"/>
<path d="M133.468 133.74C133.468 134.92 133.5 136.131 133.5 137.31C133.5 138.235 132.348 139.159 129.949 139.924C124.8 141.582 115.877 141.837 110.056 140.53C106.922 139.828 105.323 138.777 105.323 137.725L105.291 134.155C105.291 135.207 106.89 136.258 110.024 136.96C115.845 138.298 124.736 138.043 129.917 136.354C132.316 135.589 133.5 134.665 133.468 133.74Z" fill="#EDB648"/>
<path d="M128.735 130.935C134.556 132.274 135.099 134.697 129.918 136.354C124.769 138.012 115.846 138.267 110.025 136.96C104.204 135.621 103.661 133.199 108.842 131.541C114.023 129.884 122.914 129.597 128.735 130.935ZM111.656 136.45C116.453 137.566 123.841 137.342 128.127 135.94C132.413 134.569 131.965 132.561 127.136 131.445C122.306 130.33 114.95 130.553 110.665 131.955C106.411 133.326 106.827 135.334 111.656 136.45Z" fill="#FFBE55"/>
<path d="M128.735 130.935C134.556 132.274 135.099 134.697 129.918 136.354C124.769 138.012 115.846 138.267 110.025 136.96C104.204 135.621 103.661 133.199 108.842 131.541C114.023 129.884 122.914 129.597 128.735 130.935ZM111.656 136.45C116.453 137.566 123.841 137.342 128.127 135.94C132.413 134.569 131.965 132.561 127.136 131.445C122.306 130.33 114.95 130.553 110.665 131.955C106.411 133.326 106.827 135.334 111.656 136.45Z" fill="#FFE299"/>
<path d="M127.136 131.446C131.933 132.561 132.381 134.569 128.127 135.94C123.842 137.311 116.486 137.534 111.656 136.45C106.859 135.334 106.411 133.326 110.665 131.956C114.951 130.585 122.307 130.362 127.136 131.446Z" fill="#F2CB6B"/>
<path d="M110.665 132.402C114.95 131.031 122.306 130.808 127.136 131.892C129.534 132.434 130.846 133.199 131.038 134.028C131.293 133.071 129.982 132.115 127.136 131.446C122.338 130.33 114.95 130.553 110.665 131.956C108.522 132.657 107.563 133.486 107.754 134.314C107.946 133.613 108.906 132.976 110.665 132.402Z" fill="#EDB648"/>
<path d="M109.833 91.7602V102.088C109.833 104.479 107.914 106.391 105.515 106.391H90.2918C85.0466 106.391 80.793 102.152 80.793 96.9241C80.793 91.6965 85.0466 87.457 90.2918 87.457H105.515C107.882 87.457 109.833 89.3696 109.833 91.7602Z" fill="#E5BD65"/>
</g>
<defs>
<clipPath id="clip0_631_674">
<rect width="150" height="150" fill="white" transform="translate(0.5)"/>
</clipPath>
</defs>
</svg>
