<svg width="151" height="150" viewBox="0 0 151 150" fill="none" xmlns="http://www.w3.org/2000/svg">
<path d="M37.7181 127.999H18.592C16.8914 127.999 15.5 126.607 15.5 124.905V88.5698C15.5 86.868 16.8914 85.4756 18.592 85.4756H37.7181C39.4187 85.4756 40.81 86.868 40.81 88.5698V124.905C40.81 126.607 39.4407 127.999 37.7181 127.999Z" fill="#FFE9B3"/>
<path d="M41.9143 122.651H41.1855C40.8321 122.651 40.5449 122.364 40.5449 122.01V87.7083C40.5449 87.3547 40.8321 87.0674 41.1855 87.0674H41.9143C42.2677 87.0674 42.5549 87.3547 42.5549 87.7083V122.01C42.5549 122.364 42.2677 122.651 41.9143 122.651Z" fill="#FFD98D"/>
<path d="M132.84 85.4758C131.382 93.6756 130.654 95.2006 126.568 98.4053C121.422 102.45 106.602 111.777 101.457 114.827C96.3106 117.899 95.1621 121.325 83.8543 120.463C72.5465 119.601 48.142 116.595 42.5322 116.595V89.5646C45.0942 89.2773 50.5272 84.9675 57.2412 85.4758C63.9552 85.9842 73.2753 88.5038 79.7022 87.4871C86.1291 86.4925 94.6542 84.1276 100.131 84.5697C103.974 84.8791 106.536 86.1389 107.287 88.1943C107.861 89.8078 107.353 91.7748 105.586 93.7419C105.586 93.7419 115.989 88.8574 118.992 87.465C121.422 84.4149 122.482 75.95 126.479 71.3749C128.843 68.6785 131.493 67.706 133.304 67.6176C134.585 67.5734 135.424 67.9712 135.49 68.5459C135.623 70.1151 134.298 77.2761 132.84 85.4758Z" fill="#FDE1C8"/>
<path d="M133.304 67.6396C127.143 69.3415 125.773 80.5692 123.83 86.1609C121.886 91.7527 121.665 91.7527 113.339 95.5321C104.991 99.2894 97.3713 100.792 87.1898 102.384C81.6684 103.246 72.3483 106.384 75.1973 104.218C78.0464 102.052 85.3567 99.9966 91.2977 99.0683C97.2388 98.1622 102.937 96.5487 105.587 93.7639C105.587 93.7639 115.989 88.8794 118.993 87.487C121.422 84.437 122.483 75.972 126.48 71.3969C128.843 68.6784 131.493 67.706 133.304 67.6396Z" fill="#F8C9B4"/>
<path d="M75.5063 68.6347C88.3747 68.6347 98.8066 58.1952 98.8066 45.3174C98.8066 32.4395 88.3747 22 75.5063 22C62.6379 22 52.2061 32.4395 52.2061 45.3174C52.2061 58.1952 62.6379 68.6347 75.5063 68.6347Z" fill="#F7D379"/>
<path opacity="0.25" d="M75.5067 63.8384C85.7282 63.8384 94.0144 55.5462 94.0144 45.3172C94.0144 35.0882 85.7282 26.7959 75.5067 26.7959C65.2852 26.7959 56.999 35.0882 56.999 45.3172C56.999 55.5462 65.2852 63.8384 75.5067 63.8384Z" stroke="#70480F" stroke-width="3.5" stroke-miterlimit="10"/>
<path d="M75.9705 37.7582C76.3239 37.7582 76.6331 37.8688 76.9202 38.0677C77.2073 38.2666 77.4061 38.6202 77.5165 39.1286L78.7975 44.5435H81.1827L82.4857 38.7307C82.5741 38.3108 82.7729 38.0456 83.0821 37.8909C83.3913 37.7361 83.7225 37.714 84.0538 37.7803C84.4072 37.8467 84.6943 38.0235 84.8931 38.3108C85.0918 38.576 85.1139 38.9296 85.0256 39.3496L83.7225 44.5214H85.5336C85.7544 44.5214 85.9311 44.6098 86.0415 44.7645C86.1519 44.9192 86.1961 45.1181 86.1961 45.3391C86.1961 45.5602 86.1519 45.737 86.0415 45.8917C85.9311 46.0464 85.7765 46.1348 85.5336 46.1348H83.325L81.6686 52.8316C81.5361 53.34 81.3373 53.6936 81.0502 53.8925C80.7631 54.0914 80.4539 54.202 80.1226 54.202C79.8134 54.202 79.5042 54.0914 79.195 53.8925C78.9079 53.6936 78.687 53.3179 78.5766 52.7874L77.0306 46.1348H74.8441L73.1656 52.8316C73.0331 53.34 72.8344 53.6936 72.5252 53.8925C72.216 54.0914 71.9068 54.202 71.5976 54.202C71.2884 54.202 70.9792 54.0914 70.67 53.8925C70.3829 53.6936 70.162 53.3179 70.0516 52.8095L68.3952 46.1348H66.1645C65.9437 46.1348 65.767 46.0464 65.6566 45.8917C65.5461 45.737 65.502 45.5381 65.502 45.3391C65.502 45.1181 65.5461 44.9192 65.6566 44.7645C65.767 44.6098 65.9216 44.5214 66.1645 44.5214H67.9976L66.7167 39.3496C66.6062 38.9296 66.6504 38.576 66.8492 38.3108C67.0479 38.0456 67.313 37.8688 67.7105 37.7803C68.0639 37.714 68.3952 37.7361 68.6823 37.8688C68.9915 38.0014 69.1902 38.2887 69.3007 38.7307L70.6037 44.5435H73.0773L74.4466 39.1286C74.557 38.6202 74.7558 38.2666 75.0208 38.0677C75.2638 37.8467 75.5951 37.7582 75.9705 37.7582ZM71.7301 49.7374L72.6356 46.1348H70.935L71.7301 49.7374ZM75.2417 44.5435H76.6331L75.9705 41.6703L75.2417 44.5435ZM80.0122 49.7153L80.8072 46.1348H79.1729L80.0122 49.7153Z" fill="#70480F" stroke="#F7D379" stroke-width="0.5" stroke-miterlimit="10"/>
</svg>
