<svg width="150" height="150" viewBox="0 0 150 150" fill="none" xmlns="http://www.w3.org/2000/svg">
<g clip-path="url(#clip0_631_631)">
<path d="M97.2984 129.419H43.4123C39.6528 129.419 36.5996 126.365 36.5996 122.605V24.8141C36.5996 21.0538 39.6528 18 43.4123 18H97.2756C101.035 18 104.088 21.0538 104.088 24.8141V122.605C104.111 126.365 101.058 129.419 97.2984 129.419Z" fill="#FFF6E1"/>
<path d="M97.2984 129.419H43.4123C39.6528 129.419 36.5996 126.365 36.5996 122.605V24.8141C36.5996 21.0538 39.6528 18 43.4123 18H97.2756C101.035 18 104.088 21.0538 104.088 24.8141V122.605C104.111 126.365 101.058 129.419 97.2984 129.419Z" fill="#F7D379"/>
<path opacity="0.98" d="M97.0703 117.683H43.6171C43.0931 117.683 42.6602 117.25 42.6602 116.725V32.4943C42.6602 31.9701 43.0931 31.5371 43.6171 31.5371H97.0703C97.5944 31.5371 98.0273 31.9701 98.0273 32.4943V116.725C98.0501 117.25 97.6172 117.683 97.0703 117.683Z" fill="white"/>
<path d="M82.9437 63.2149C82.1007 60.0471 79.9589 57.3807 77.0652 55.8538C74.8323 54.6915 72.3716 54.0762 69.8652 54.0534C67.1538 53.985 64.4197 54.0078 61.6855 54.0306C60.9336 54.0762 60.6602 54.4864 60.5918 54.851V84.1359C60.5918 84.7284 61.0703 85.2298 61.6855 85.2298H64.3969C65.0121 85.2298 65.5133 84.7284 65.5133 84.1131V59.1127C65.5133 58.4746 66.0374 57.9732 66.6753 57.996C68.0424 58.0416 69.364 58.0416 70.6855 58.2239C74.1943 58.4974 77.1108 60.9815 77.9994 64.3772C79.0247 67.7728 79.0247 71.4192 77.9766 74.8149C77.1791 77.8231 74.7867 80.1477 71.7336 80.8314L71.4146 80.9226C70.9133 81.0593 70.5488 81.5151 70.5488 82.0392L70.526 83.9536C70.526 84.6373 71.1412 85.1842 71.8019 85.0703C72.2576 85.0019 72.7133 84.9336 73.169 84.8196C77.5209 84.0675 81.1209 81.0137 82.5791 76.8432C84.1741 72.4675 84.3108 67.6817 82.9437 63.2149Z" fill="#70480F"/>
<path d="M91.1242 91.6333C89.0507 91.5421 87.1596 91.5193 85.4507 91.5877C83.6052 91.5193 68.59 90.8128 68.7495 92.1802C68.909 93.6616 68.8178 97.6726 71.8026 99.9515C74.7874 102.231 93.2431 103.643 97.2533 105.535C97.2533 105.535 93.995 112.987 95.271 118.502C96.0457 121.807 102.084 127.801 100.739 128.279C99.395 128.758 61.2988 129.419 61.2988 129.419C61.2988 129.419 87.2963 137.236 92.3318 142.363C94.7469 144.825 98.028 151.046 100.785 157.199C109.557 153.371 118.306 147.878 126.6 140.882C122.294 130.581 118.101 119.482 117.213 113.375C114.615 95.3252 105.98 92.2714 91.1242 91.6333Z" fill="#FDE1C8"/>
</g>
<defs>
<clipPath id="clip0_631_631">
<rect width="150" height="150" fill="white"/>
</clipPath>
</defs>
</svg>
