<svg width="151" height="150" viewBox="0 0 151 150" fill="none" xmlns="http://www.w3.org/2000/svg">
<g clip-path="url(#clip0_631_657)">
<path d="M33.0928 76.3163C33.3464 73.7843 34.4879 71.3172 36.2 69.6942C37.9756 67.8763 39.4341 65.8637 40.5755 63.6563C40.8292 62.4877 41.3365 61.384 42.0974 60.3453C43.112 57.8133 43.7462 55.0865 43.9998 52.4247L44.5071 47.5555C44.5071 47.4257 44.5071 47.4257 44.5071 47.2958L44.7608 45.0235C45.2681 40.0245 47.4875 35.6746 50.785 32.4934C55.4142 26.7153 62.1359 22.8849 70.0626 22.1058C79.0038 21.3267 87.2475 24.8975 93.0181 31.2599C99.613 34.9605 103.862 42.4915 103.164 50.7367L102.784 54.1776C104.813 55.8656 106.145 58.2678 106.398 61.1893C106.525 63.3967 106.018 65.5391 105.003 67.3569C108.871 71.5769 111.408 77.0953 111.979 83.1981C113.247 97.8057 102.593 110.725 88.3255 111.829C79.5745 112.608 71.5845 108.907 66.3212 102.48C63.7213 104.688 60.297 106.051 56.6824 106.311C46.79 107.219 38.039 99.6885 37.2146 89.4307C37.0878 88.1322 37.0878 86.8987 37.2146 85.7301C34.361 83.6525 32.7757 80.0169 33.0928 76.3163Z" fill="#3A2100"/>
<path d="M39.6242 112.943C37.4048 115.475 32.3443 121.5 30.9753 124.303C29.6063 127.106 25.5 150.93 25.5 150.93C117.844 171.299 125.904 176.084 125.485 150.598L124.407 138.393C124.407 135.861 124.154 133.264 123.773 130.732C120.983 114.761 110.013 102.296 96.8862 99.7635C95.2375 99.5038 93.6521 99.2441 92.0034 99.2441L59.5359 99.374C57.8872 99.9583 56.3019 100.737 54.7799 101.646V101.387L54.1458 101.906C48.8825 105.022 43.6193 108.463 39.6242 112.943Z" fill="#CCDAE2"/>
<path d="M44.6328 69.4339L46.7254 48.5937C47.1059 44.6334 48.8815 41.0627 51.3546 38.2061C52.3692 47.5549 60.1056 54.8263 69.4907 54.8263H86.1049L84.0757 73.7837C83.9489 74.6926 83.822 75.6016 83.5684 76.4455L86.6756 93.8448C88.1975 102.025 83.3147 109.946 75.5783 111.504C67.9688 113.062 60.486 107.673 58.8373 99.4931L56.9349 89.2353C49.0083 86.184 43.745 78.2634 44.6328 69.4339Z" fill="#FFE3CA"/>
<path opacity="0.46" d="M63.3411 90.4043C71.3311 91.3132 78.687 86.9634 82.1113 80.1465L82.365 81.5748C83.2528 86.9634 78.1163 92.352 71.1409 93.3258C66.0044 94.1049 61.2484 92.5467 58.7753 89.4954C59.6631 89.7551 60.5509 89.8849 61.3753 90.0147L63.3411 90.4043Z" fill="#F6B7A0"/>
<path d="M49.8969 30.0264H71.711C81.4766 30.0264 89.4666 38.2066 89.4666 48.2047V54.3724C89.5935 54.3724 89.5935 54.3724 89.7203 54.3724C92.8275 54.8918 95.1104 57.9431 94.6031 61.1244L93.4617 68.0062C92.9544 71.1874 89.9739 73.5246 86.8667 73.0052C85.9789 72.8754 85.218 72.4858 84.6473 72.0963L79.8913 78.3938C78.8767 79.8221 77.2913 80.6012 75.5158 80.6012H69.0476C68.6672 80.6012 68.4135 80.3415 68.4135 79.952C68.4135 79.5624 68.6672 79.3027 69.0476 79.3027H75.5158C76.784 79.3027 77.9889 78.6535 78.8767 77.6147L83.6326 71.3172C82.3644 70.0188 81.7303 68.136 82.1107 66.3182L83.2522 59.4364C83.6326 56.9044 85.5984 54.9567 87.8813 54.5672V48.2697C87.8813 39.3103 80.7791 31.9091 71.9012 31.9091H50.0237C49.5164 31.9091 49.136 31.5196 49.136 31.0002C49.0091 30.4159 49.3896 30.0264 49.8969 30.0264Z" fill="#FABB58"/>
<path d="M67.7159 81.4445H70.3159C71.0768 81.4445 71.7109 80.7953 71.7109 80.0162C71.7109 79.2371 71.0768 78.5879 70.3159 78.5879H67.7159C66.955 78.5879 66.3208 79.2371 66.3208 80.0162C66.3842 80.7953 67.0184 81.4445 67.7159 81.4445Z" fill="#F4A8B4"/>
<path d="M67.7157 82.2243H70.3156C71.4571 82.2243 72.4717 81.3154 72.4717 80.0169C72.4717 78.8483 71.5839 77.8096 70.3156 77.8096H67.7157C66.5743 77.8096 65.5597 78.7185 65.5597 80.0169C65.7499 81.1856 66.6377 82.2243 67.7157 82.2243Z" fill="#FABB58"/>
</g>
<defs>
<clipPath id="clip0_631_657">
<rect width="150" height="150" fill="white" transform="translate(0.5)"/>
</clipPath>
</defs>
</svg>
